<svg version="1.1" baseProfile="tiny" xmlns="http://www.w3.org/2000/svg" width="250" height="250" ><rect xmlns="http://www.w3.org/2000/svg" shape-rendering="optimizeSpeed" width="250" height="250" fill="#fff" x="0" y="0"/><rect shape-rendering="optimizeSpeed" fill="#000" x="10" y="10"  width="7.069696969696969" height="7.069696969696969"></rect><rect shape-rendering="optimizeSpeed" fill="#000" x="16.96969696969697" y="10"  width="7.069696969696969" height="7.069696969696969"></rect><rect shape-rendering="optimizeSpeed" fill="#000" x="23.939393939393938" y="10"  width="7.069696969696969" height="7.069696969696969"></rect><rect shape-rendering="optimizeSpeed" fill="#000" x="30.90909090909091" y="10"  width="7.069696969696969" height="7.069696969696969"></rect><rect shape-rendering="optimizeSpeed" fill="#000" x="37.878787878787875" y="10"  width="7.069696969696969" height="7.069696969696969"></rect><rect shape-rendering="optimizeSpeed" fill="#000" x="44.84848484848485" y="10"  width="7.069696969696969" height="7.069696969696969"></rect><rect shape-rendering="optimizeSpeed" fill="#000" x="51.81818181818182" y="10"  width="7.069696969696969" height="7.069696969696969"></rect><rect shape-rendering="optimizeSpeed" fill="#000" x="65.75757575757575" y="10"  width="7.069696969696969" height="7.069696969696969"></rect><rect shape-rendering="optimizeSpeed" fill="#000" x="72.72727272727272" y="10"  width="7.069696969696969" height="7.069696969696969"></rect><rect shape-rendering="optimizeSpeed" fill="#000" x="79.6969696969697" y="10"  width="7.069696969696969" height="7.069696969696969"></rect><rect shape-rendering="optimizeSpeed" fill="#000" x="86.66666666666667" y="10"  width="7.069696969696969" height="7.069696969696969"></rect><rect shape-rendering="optimizeSpeed" fill="#000" x="100.60606060606061" y="10"  width="7.069696969696969" height="7.069696969696969"></rect><rect shape-rendering="optimizeSpeed" fill="#000" x="135.45454545454544" y="10"  width="7.069696969696969" height="7.069696969696969"></rect><rect shape-rendering="optimizeSpeed" fill="#000" x="156.36363636363637" y="10"  width="7.069696969696969" height="7.069696969696969"></rect><rect shape-rendering="optimizeSpeed" fill="#000" x="163.33333333333334" y="10"  width="7.069696969696969" height="7.069696969696969"></rect><rect shape-rendering="optimizeSpeed" fill="#000" x="191.21212121212122" y="10"  width="7.069696969696969" height="7.069696969696969"></rect><rect shape-rendering="optimizeSpeed" fill="#000" x="198.1818181818182" y="10"  width="7.069696969696969" height="7.069696969696969"></rect><rect shape-rendering="optimizeSpeed" fill="#000" x="205.15151515151516" y="10"  width="7.069696969696969" height="7.069696969696969"></rect><rect shape-rendering="optimizeSpeed" fill="#000" x="212.12121212121212" y="10"  width="7.069696969696969" height="7.069696969696969"></rect><rect shape-rendering="optimizeSpeed" fill="#000" x="219.0909090909091" y="10"  width="7.069696969696969" height="7.069696969696969"></rect><rect shape-rendering="optimizeSpeed" fill="#000" x="226.06060606060606" y="10"  width="7.069696969696969" height="7.069696969696969"></rect><rect shape-rendering="optimizeSpeed" fill="#000" x="233.03030303030303" y="10"  width="7.069696969696969" height="7.069696969696969"></rect><rect shape-rendering="optimizeSpeed" fill="#000" x="10" y="16.96969696969697"  width="7.069696969696969" height="7.069696969696969"></rect><rect shape-rendering="optimizeSpeed" fill="#000" x="51.81818181818182" y="16.96969696969697"  width="7.069696969696969" height="7.069696969696969"></rect><rect shape-rendering="optimizeSpeed" fill="#000" x="65.75757575757575" y="16.96969696969697"  width="7.069696969696969" height="7.069696969696969"></rect><rect shape-rendering="optimizeSpeed" fill="#000" x="86.66666666666667" y="16.96969696969697"  width="7.069696969696969" height="7.069696969696969"></rect><rect shape-rendering="optimizeSpeed" fill="#000" x="100.60606060606061" y="16.96969696969697"  width="7.069696969696969" height="7.069696969696969"></rect><rect shape-rendering="optimizeSpeed" fill="#000" x="121.51515151515152" y="16.96969696969697"  width="7.069696969696969" height="7.069696969696969"></rect><rect shape-rendering="optimizeSpeed" fill="#000" x="149.3939393939394" y="16.96969696969697"  width="7.069696969696969" height="7.069696969696969"></rect><rect shape-rendering="optimizeSpeed" fill="#000" x="177.27272727272728" y="16.96969696969697"  width="7.069696969696969" height="7.069696969696969"></rect><rect shape-rendering="optimizeSpeed" fill="#000" x="191.21212121212122" y="16.96969696969697"  width="7.069696969696969" height="7.069696969696969"></rect><rect shape-rendering="optimizeSpeed" fill="#000" x="233.03030303030303" y="16.96969696969697"  width="7.069696969696969" height="7.069696969696969"></rect><rect shape-rendering="optimizeSpeed" fill="#000" x="10" y="23.939393939393938"  width="7.069696969696969" height="7.069696969696969"></rect><rect shape-rendering="optimizeSpeed" fill="#000" x="23.939393939393938" y="23.939393939393938"  width="7.069696969696969" height="7.069696969696969"></rect><rect shape-rendering="optimizeSpeed" fill="#000" x="30.90909090909091" y="23.939393939393938"  width="7.069696969696969" height="7.069696969696969"></rect><rect shape-rendering="optimizeSpeed" fill="#000" x="37.878787878787875" y="23.939393939393938"  width="7.069696969696969" height="7.069696969696969"></rect><rect shape-rendering="optimizeSpeed" fill="#000" x="51.81818181818182" y="23.939393939393938"  width="7.069696969696969" height="7.069696969696969"></rect><rect shape-rendering="optimizeSpeed" fill="#000" x="72.72727272727272" y="23.939393939393938"  width="7.069696969696969" height="7.069696969696969"></rect><rect shape-rendering="optimizeSpeed" fill="#000" x="100.60606060606061" y="23.939393939393938"  width="7.069696969696969" height="7.069696969696969"></rect><rect shape-rendering="optimizeSpeed" fill="#000" x="107.57575757575758" y="23.939393939393938"  width="7.069696969696969" height="7.069696969696969"></rect><rect shape-rendering="optimizeSpeed" fill="#000" x="128.4848484848485" y="23.939393939393938"  width="7.069696969696969" height="7.069696969696969"></rect><rect shape-rendering="optimizeSpeed" fill="#000" x="142.42424242424244" y="23.939393939393938"  width="7.069696969696969" height="7.069696969696969"></rect><rect shape-rendering="optimizeSpeed" fill="#000" x="149.3939393939394" y="23.939393939393938"  width="7.069696969696969" height="7.069696969696969"></rect><rect shape-rendering="optimizeSpeed" fill="#000" x="156.36363636363637" y="23.939393939393938"  width="7.069696969696969" height="7.069696969696969"></rect><rect shape-rendering="optimizeSpeed" fill="#000" x="191.21212121212122" y="23.939393939393938"  width="7.069696969696969" height="7.069696969696969"></rect><rect shape-rendering="optimizeSpeed" fill="#000" x="205.15151515151516" y="23.939393939393938"  width="7.069696969696969" height="7.069696969696969"></rect><rect shape-rendering="optimizeSpeed" fill="#000" x="212.12121212121212" y="23.939393939393938"  width="7.069696969696969" height="7.069696969696969"></rect><rect shape-rendering="optimizeSpeed" fill="#000" x="219.0909090909091" y="23.939393939393938"  width="7.069696969696969" height="7.069696969696969"></rect><rect shape-rendering="optimizeSpeed" fill="#000" x="233.03030303030303" y="23.939393939393938"  width="7.069696969696969" height="7.069696969696969"></rect><rect shape-rendering="optimizeSpeed" fill="#000" x="10" y="30.90909090909091"  width="7.069696969696969" height="7.069696969696969"></rect><rect shape-rendering="optimizeSpeed" fill="#000" x="23.939393939393938" y="30.90909090909091"  width="7.069696969696969" height="7.069696969696969"></rect><rect shape-rendering="optimizeSpeed" fill="#000" x="30.90909090909091" y="30.90909090909091"  width="7.069696969696969" height="7.069696969696969"></rect><rect shape-rendering="optimizeSpeed" fill="#000" x="37.878787878787875" y="30.90909090909091"  width="7.069696969696969" height="7.069696969696969"></rect><rect shape-rendering="optimizeSpeed" fill="#000" x="51.81818181818182" y="30.90909090909091"  width="7.069696969696969" height="7.069696969696969"></rect><rect shape-rendering="optimizeSpeed" fill="#000" x="86.66666666666667" y="30.90909090909091"  width="7.069696969696969" height="7.069696969696969"></rect><rect shape-rendering="optimizeSpeed" fill="#000" x="93.63636363636364" y="30.90909090909091"  width="7.069696969696969" height="7.069696969696969"></rect><rect shape-rendering="optimizeSpeed" fill="#000" x="100.60606060606061" y="30.90909090909091"  width="7.069696969696969" height="7.069696969696969"></rect><rect shape-rendering="optimizeSpeed" fill="#000" x="107.57575757575758" y="30.90909090909091"  width="7.069696969696969" height="7.069696969696969"></rect><rect shape-rendering="optimizeSpeed" fill="#000" x="114.54545454545455" y="30.90909090909091"  width="7.069696969696969" height="7.069696969696969"></rect><rect shape-rendering="optimizeSpeed" fill="#000" x="128.4848484848485" y="30.90909090909091"  width="7.069696969696969" height="7.069696969696969"></rect><rect shape-rendering="optimizeSpeed" fill="#000" x="135.45454545454544" y="30.90909090909091"  width="7.069696969696969" height="7.069696969696969"></rect><rect shape-rendering="optimizeSpeed" fill="#000" x="156.36363636363637" y="30.90909090909091"  width="7.069696969696969" height="7.069696969696969"></rect><rect shape-rendering="optimizeSpeed" fill="#000" x="163.33333333333334" y="30.90909090909091"  width="7.069696969696969" height="7.069696969696969"></rect><rect shape-rendering="optimizeSpeed" fill="#000" x="170.3030303030303" y="30.90909090909091"  width="7.069696969696969" height="7.069696969696969"></rect><rect shape-rendering="optimizeSpeed" fill="#000" x="191.21212121212122" y="30.90909090909091"  width="7.069696969696969" height="7.069696969696969"></rect><rect shape-rendering="optimizeSpeed" fill="#000" x="205.15151515151516" y="30.90909090909091"  width="7.069696969696969" height="7.069696969696969"></rect><rect shape-rendering="optimizeSpeed" fill="#000" x="212.12121212121212" y="30.90909090909091"  width="7.069696969696969" height="7.069696969696969"></rect><rect shape-rendering="optimizeSpeed" fill="#000" x="219.0909090909091" y="30.90909090909091"  width="7.069696969696969" height="7.069696969696969"></rect><rect shape-rendering="optimizeSpeed" fill="#000" x="233.03030303030303" y="30.90909090909091"  width="7.069696969696969" height="7.069696969696969"></rect><rect shape-rendering="optimizeSpeed" fill="#000" x="10" y="37.878787878787875"  width="7.069696969696969" height="7.069696969696969"></rect><rect shape-rendering="optimizeSpeed" fill="#000" x="23.939393939393938" y="37.878787878787875"  width="7.069696969696969" height="7.069696969696969"></rect><rect shape-rendering="optimizeSpeed" fill="#000" x="30.90909090909091" y="37.878787878787875"  width="7.069696969696969" height="7.069696969696969"></rect><rect shape-rendering="optimizeSpeed" fill="#000" x="37.878787878787875" y="37.878787878787875"  width="7.069696969696969" height="7.069696969696969"></rect><rect shape-rendering="optimizeSpeed" fill="#000" x="51.81818181818182" y="37.878787878787875"  width="7.069696969696969" height="7.069696969696969"></rect><rect shape-rendering="optimizeSpeed" fill="#000" x="65.75757575757575" y="37.878787878787875"  width="7.069696969696969" height="7.069696969696969"></rect><rect shape-rendering="optimizeSpeed" fill="#000" x="86.66666666666667" y="37.878787878787875"  width="7.069696969696969" height="7.069696969696969"></rect><rect shape-rendering="optimizeSpeed" fill="#000" x="93.63636363636364" y="37.878787878787875"  width="7.069696969696969" height="7.069696969696969"></rect><rect shape-rendering="optimizeSpeed" fill="#000" x="100.60606060606061" y="37.878787878787875"  width="7.069696969696969" height="7.069696969696969"></rect><rect shape-rendering="optimizeSpeed" fill="#000" x="135.45454545454544" y="37.878787878787875"  width="7.069696969696969" height="7.069696969696969"></rect><rect shape-rendering="optimizeSpeed" fill="#000" x="163.33333333333334" y="37.878787878787875"  width="7.069696969696969" height="7.069696969696969"></rect><rect shape-rendering="optimizeSpeed" fill="#000" x="177.27272727272728" y="37.878787878787875"  width="7.069696969696969" height="7.069696969696969"></rect><rect shape-rendering="optimizeSpeed" fill="#000" x="191.21212121212122" y="37.878787878787875"  width="7.069696969696969" height="7.069696969696969"></rect><rect shape-rendering="optimizeSpeed" fill="#000" x="205.15151515151516" y="37.878787878787875"  width="7.069696969696969" height="7.069696969696969"></rect><rect shape-rendering="optimizeSpeed" fill="#000" x="212.12121212121212" y="37.878787878787875"  width="7.069696969696969" height="7.069696969696969"></rect><rect shape-rendering="optimizeSpeed" fill="#000" x="219.0909090909091" y="37.878787878787875"  width="7.069696969696969" height="7.069696969696969"></rect><rect shape-rendering="optimizeSpeed" fill="#000" x="233.03030303030303" y="37.878787878787875"  width="7.069696969696969" height="7.069696969696969"></rect><rect shape-rendering="optimizeSpeed" fill="#000" x="10" y="44.84848484848485"  width="7.069696969696969" height="7.069696969696969"></rect><rect shape-rendering="optimizeSpeed" fill="#000" x="51.81818181818182" y="44.84848484848485"  width="7.069696969696969" height="7.069696969696969"></rect><rect shape-rendering="optimizeSpeed" fill="#000" x="65.75757575757575" y="44.84848484848485"  width="7.069696969696969" height="7.069696969696969"></rect><rect shape-rendering="optimizeSpeed" fill="#000" x="72.72727272727272" y="44.84848484848485"  width="7.069696969696969" height="7.069696969696969"></rect><rect shape-rendering="optimizeSpeed" fill="#000" x="79.6969696969697" y="44.84848484848485"  width="7.069696969696969" height="7.069696969696969"></rect><rect shape-rendering="optimizeSpeed" fill="#000" x="93.63636363636364" y="44.84848484848485"  width="7.069696969696969" height="7.069696969696969"></rect><rect shape-rendering="optimizeSpeed" fill="#000" x="100.60606060606061" y="44.84848484848485"  width="7.069696969696969" height="7.069696969696969"></rect><rect shape-rendering="optimizeSpeed" fill="#000" x="121.51515151515152" y="44.84848484848485"  width="7.069696969696969" height="7.069696969696969"></rect><rect shape-rendering="optimizeSpeed" fill="#000" x="128.4848484848485" y="44.84848484848485"  width="7.069696969696969" height="7.069696969696969"></rect><rect shape-rendering="optimizeSpeed" fill="#000" x="135.45454545454544" y="44.84848484848485"  width="7.069696969696969" height="7.069696969696969"></rect><rect shape-rendering="optimizeSpeed" fill="#000" x="163.33333333333334" y="44.84848484848485"  width="7.069696969696969" height="7.069696969696969"></rect><rect shape-rendering="optimizeSpeed" fill="#000" x="177.27272727272728" y="44.84848484848485"  width="7.069696969696969" height="7.069696969696969"></rect><rect shape-rendering="optimizeSpeed" fill="#000" x="191.21212121212122" y="44.84848484848485"  width="7.069696969696969" height="7.069696969696969"></rect><rect shape-rendering="optimizeSpeed" fill="#000" x="233.03030303030303" y="44.84848484848485"  width="7.069696969696969" height="7.069696969696969"></rect><rect shape-rendering="optimizeSpeed" fill="#000" x="10" y="51.81818181818182"  width="7.069696969696969" height="7.069696969696969"></rect><rect shape-rendering="optimizeSpeed" fill="#000" x="16.96969696969697" y="51.81818181818182"  width="7.069696969696969" height="7.069696969696969"></rect><rect shape-rendering="optimizeSpeed" fill="#000" x="23.939393939393938" y="51.81818181818182"  width="7.069696969696969" height="7.069696969696969"></rect><rect shape-rendering="optimizeSpeed" fill="#000" x="30.90909090909091" y="51.81818181818182"  width="7.069696969696969" height="7.069696969696969"></rect><rect shape-rendering="optimizeSpeed" fill="#000" x="37.878787878787875" y="51.81818181818182"  width="7.069696969696969" height="7.069696969696969"></rect><rect shape-rendering="optimizeSpeed" fill="#000" x="44.84848484848485" y="51.81818181818182"  width="7.069696969696969" height="7.069696969696969"></rect><rect shape-rendering="optimizeSpeed" fill="#000" x="51.81818181818182" y="51.81818181818182"  width="7.069696969696969" height="7.069696969696969"></rect><rect shape-rendering="optimizeSpeed" fill="#000" x="65.75757575757575" y="51.81818181818182"  width="7.069696969696969" height="7.069696969696969"></rect><rect shape-rendering="optimizeSpeed" fill="#000" x="79.6969696969697" y="51.81818181818182"  width="7.069696969696969" height="7.069696969696969"></rect><rect shape-rendering="optimizeSpeed" fill="#000" x="93.63636363636364" y="51.81818181818182"  width="7.069696969696969" height="7.069696969696969"></rect><rect shape-rendering="optimizeSpeed" fill="#000" x="107.57575757575758" y="51.81818181818182"  width="7.069696969696969" height="7.069696969696969"></rect><rect shape-rendering="optimizeSpeed" fill="#000" x="121.51515151515152" y="51.81818181818182"  width="7.069696969696969" height="7.069696969696969"></rect><rect shape-rendering="optimizeSpeed" fill="#000" x="135.45454545454544" y="51.81818181818182"  width="7.069696969696969" height="7.069696969696969"></rect><rect shape-rendering="optimizeSpeed" fill="#000" x="149.3939393939394" y="51.81818181818182"  width="7.069696969696969" height="7.069696969696969"></rect><rect shape-rendering="optimizeSpeed" fill="#000" x="163.33333333333334" y="51.81818181818182"  width="7.069696969696969" height="7.069696969696969"></rect><rect shape-rendering="optimizeSpeed" fill="#000" x="177.27272727272728" y="51.81818181818182"  width="7.069696969696969" height="7.069696969696969"></rect><rect shape-rendering="optimizeSpeed" fill="#000" x="191.21212121212122" y="51.81818181818182"  width="7.069696969696969" height="7.069696969696969"></rect><rect shape-rendering="optimizeSpeed" fill="#000" x="198.1818181818182" y="51.81818181818182"  width="7.069696969696969" height="7.069696969696969"></rect><rect shape-rendering="optimizeSpeed" fill="#000" x="205.15151515151516" y="51.81818181818182"  width="7.069696969696969" height="7.069696969696969"></rect><rect shape-rendering="optimizeSpeed" fill="#000" x="212.12121212121212" y="51.81818181818182"  width="7.069696969696969" height="7.069696969696969"></rect><rect shape-rendering="optimizeSpeed" fill="#000" x="219.0909090909091" y="51.81818181818182"  width="7.069696969696969" height="7.069696969696969"></rect><rect shape-rendering="optimizeSpeed" fill="#000" x="226.06060606060606" y="51.81818181818182"  width="7.069696969696969" height="7.069696969696969"></rect><rect shape-rendering="optimizeSpeed" fill="#000" x="233.03030303030303" y="51.81818181818182"  width="7.069696969696969" height="7.069696969696969"></rect><rect shape-rendering="optimizeSpeed" fill="#000" x="65.75757575757575" y="58.78787878787879"  width="7.069696969696969" height="7.069696969696969"></rect><rect shape-rendering="optimizeSpeed" fill="#000" x="72.72727272727272" y="58.78787878787879"  width="7.069696969696969" height="7.069696969696969"></rect><rect shape-rendering="optimizeSpeed" fill="#000" x="107.57575757575758" y="58.78787878787879"  width="7.069696969696969" height="7.069696969696969"></rect><rect shape-rendering="optimizeSpeed" fill="#000" x="114.54545454545455" y="58.78787878787879"  width="7.069696969696969" height="7.069696969696969"></rect><rect shape-rendering="optimizeSpeed" fill="#000" x="121.51515151515152" y="58.78787878787879"  width="7.069696969696969" height="7.069696969696969"></rect><rect shape-rendering="optimizeSpeed" fill="#000" x="149.3939393939394" y="58.78787878787879"  width="7.069696969696969" height="7.069696969696969"></rect><rect shape-rendering="optimizeSpeed" fill="#000" x="177.27272727272728" y="58.78787878787879"  width="7.069696969696969" height="7.069696969696969"></rect><rect shape-rendering="optimizeSpeed" fill="#000" x="10" y="65.75757575757575"  width="7.069696969696969" height="7.069696969696969"></rect><rect shape-rendering="optimizeSpeed" fill="#000" x="16.96969696969697" y="65.75757575757575"  width="7.069696969696969" height="7.069696969696969"></rect><rect shape-rendering="optimizeSpeed" fill="#000" x="23.939393939393938" y="65.75757575757575"  width="7.069696969696969" height="7.069696969696969"></rect><rect shape-rendering="optimizeSpeed" fill="#000" x="44.84848484848485" y="65.75757575757575"  width="7.069696969696969" height="7.069696969696969"></rect><rect shape-rendering="optimizeSpeed" fill="#000" x="51.81818181818182" y="65.75757575757575"  width="7.069696969696969" height="7.069696969696969"></rect><rect shape-rendering="optimizeSpeed" fill="#000" x="65.75757575757575" y="65.75757575757575"  width="7.069696969696969" height="7.069696969696969"></rect><rect shape-rendering="optimizeSpeed" fill="#000" x="72.72727272727272" y="65.75757575757575"  width="7.069696969696969" height="7.069696969696969"></rect><rect shape-rendering="optimizeSpeed" fill="#000" x="86.66666666666667" y="65.75757575757575"  width="7.069696969696969" height="7.069696969696969"></rect><rect shape-rendering="optimizeSpeed" fill="#000" x="93.63636363636364" y="65.75757575757575"  width="7.069696969696969" height="7.069696969696969"></rect><rect shape-rendering="optimizeSpeed" fill="#000" x="114.54545454545455" y="65.75757575757575"  width="7.069696969696969" height="7.069696969696969"></rect><rect shape-rendering="optimizeSpeed" fill="#000" x="135.45454545454544" y="65.75757575757575"  width="7.069696969696969" height="7.069696969696969"></rect><rect shape-rendering="optimizeSpeed" fill="#000" x="142.42424242424244" y="65.75757575757575"  width="7.069696969696969" height="7.069696969696969"></rect><rect shape-rendering="optimizeSpeed" fill="#000" x="177.27272727272728" y="65.75757575757575"  width="7.069696969696969" height="7.069696969696969"></rect><rect shape-rendering="optimizeSpeed" fill="#000" x="184.24242424242425" y="65.75757575757575"  width="7.069696969696969" height="7.069696969696969"></rect><rect shape-rendering="optimizeSpeed" fill="#000" x="191.21212121212122" y="65.75757575757575"  width="7.069696969696969" height="7.069696969696969"></rect><rect shape-rendering="optimizeSpeed" fill="#000" x="198.1818181818182" y="65.75757575757575"  width="7.069696969696969" height="7.069696969696969"></rect><rect shape-rendering="optimizeSpeed" fill="#000" x="205.15151515151516" y="65.75757575757575"  width="7.069696969696969" height="7.069696969696969"></rect><rect shape-rendering="optimizeSpeed" fill="#000" x="226.06060606060606" y="65.75757575757575"  width="7.069696969696969" height="7.069696969696969"></rect><rect shape-rendering="optimizeSpeed" fill="#000" x="233.03030303030303" y="65.75757575757575"  width="7.069696969696969" height="7.069696969696969"></rect><rect shape-rendering="optimizeSpeed" fill="#000" x="23.939393939393938" y="72.72727272727272"  width="7.069696969696969" height="7.069696969696969"></rect><rect shape-rendering="optimizeSpeed" fill="#000" x="65.75757575757575" y="72.72727272727272"  width="7.069696969696969" height="7.069696969696969"></rect><rect shape-rendering="optimizeSpeed" fill="#000" x="93.63636363636364" y="72.72727272727272"  width="7.069696969696969" height="7.069696969696969"></rect><rect shape-rendering="optimizeSpeed" fill="#000" x="100.60606060606061" y="72.72727272727272"  width="7.069696969696969" height="7.069696969696969"></rect><rect shape-rendering="optimizeSpeed" fill="#000" x="114.54545454545455" y="72.72727272727272"  width="7.069696969696969" height="7.069696969696969"></rect><rect shape-rendering="optimizeSpeed" fill="#000" x="121.51515151515152" y="72.72727272727272"  width="7.069696969696969" height="7.069696969696969"></rect><rect shape-rendering="optimizeSpeed" fill="#000" x="128.4848484848485" y="72.72727272727272"  width="7.069696969696969" height="7.069696969696969"></rect><rect shape-rendering="optimizeSpeed" fill="#000" x="142.42424242424244" y="72.72727272727272"  width="7.069696969696969" height="7.069696969696969"></rect><rect shape-rendering="optimizeSpeed" fill="#000" x="149.3939393939394" y="72.72727272727272"  width="7.069696969696969" height="7.069696969696969"></rect><rect shape-rendering="optimizeSpeed" fill="#000" x="170.3030303030303" y="72.72727272727272"  width="7.069696969696969" height="7.069696969696969"></rect><rect shape-rendering="optimizeSpeed" fill="#000" x="177.27272727272728" y="72.72727272727272"  width="7.069696969696969" height="7.069696969696969"></rect><rect shape-rendering="optimizeSpeed" fill="#000" x="191.21212121212122" y="72.72727272727272"  width="7.069696969696969" height="7.069696969696969"></rect><rect shape-rendering="optimizeSpeed" fill="#000" x="198.1818181818182" y="72.72727272727272"  width="7.069696969696969" height="7.069696969696969"></rect><rect shape-rendering="optimizeSpeed" fill="#000" x="219.0909090909091" y="72.72727272727272"  width="7.069696969696969" height="7.069696969696969"></rect><rect shape-rendering="optimizeSpeed" fill="#000" x="233.03030303030303" y="72.72727272727272"  width="7.069696969696969" height="7.069696969696969"></rect><rect shape-rendering="optimizeSpeed" fill="#000" x="10" y="79.6969696969697"  width="7.069696969696969" height="7.069696969696969"></rect><rect shape-rendering="optimizeSpeed" fill="#000" x="16.96969696969697" y="79.6969696969697"  width="7.069696969696969" height="7.069696969696969"></rect><rect shape-rendering="optimizeSpeed" fill="#000" x="30.90909090909091" y="79.6969696969697"  width="7.069696969696969" height="7.069696969696969"></rect><rect shape-rendering="optimizeSpeed" fill="#000" x="44.84848484848485" y="79.6969696969697"  width="7.069696969696969" height="7.069696969696969"></rect><rect shape-rendering="optimizeSpeed" fill="#000" x="51.81818181818182" y="79.6969696969697"  width="7.069696969696969" height="7.069696969696969"></rect><rect shape-rendering="optimizeSpeed" fill="#000" x="72.72727272727272" y="79.6969696969697"  width="7.069696969696969" height="7.069696969696969"></rect><rect shape-rendering="optimizeSpeed" fill="#000" x="79.6969696969697" y="79.6969696969697"  width="7.069696969696969" height="7.069696969696969"></rect><rect shape-rendering="optimizeSpeed" fill="#000" x="93.63636363636364" y="79.6969696969697"  width="7.069696969696969" height="7.069696969696969"></rect><rect shape-rendering="optimizeSpeed" fill="#000" x="100.60606060606061" y="79.6969696969697"  width="7.069696969696969" height="7.069696969696969"></rect><rect shape-rendering="optimizeSpeed" fill="#000" x="107.57575757575758" y="79.6969696969697"  width="7.069696969696969" height="7.069696969696969"></rect><rect shape-rendering="optimizeSpeed" fill="#000" x="114.54545454545455" y="79.6969696969697"  width="7.069696969696969" height="7.069696969696969"></rect><rect shape-rendering="optimizeSpeed" fill="#000" x="128.4848484848485" y="79.6969696969697"  width="7.069696969696969" height="7.069696969696969"></rect><rect shape-rendering="optimizeSpeed" fill="#000" x="142.42424242424244" y="79.6969696969697"  width="7.069696969696969" height="7.069696969696969"></rect><rect shape-rendering="optimizeSpeed" fill="#000" x="149.3939393939394" y="79.6969696969697"  width="7.069696969696969" height="7.069696969696969"></rect><rect shape-rendering="optimizeSpeed" fill="#000" x="163.33333333333334" y="79.6969696969697"  width="7.069696969696969" height="7.069696969696969"></rect><rect shape-rendering="optimizeSpeed" fill="#000" x="170.3030303030303" y="79.6969696969697"  width="7.069696969696969" height="7.069696969696969"></rect><rect shape-rendering="optimizeSpeed" fill="#000" x="184.24242424242425" y="79.6969696969697"  width="7.069696969696969" height="7.069696969696969"></rect><rect shape-rendering="optimizeSpeed" fill="#000" x="191.21212121212122" y="79.6969696969697"  width="7.069696969696969" height="7.069696969696969"></rect><rect shape-rendering="optimizeSpeed" fill="#000" x="198.1818181818182" y="79.6969696969697"  width="7.069696969696969" height="7.069696969696969"></rect><rect shape-rendering="optimizeSpeed" fill="#000" x="233.03030303030303" y="79.6969696969697"  width="7.069696969696969" height="7.069696969696969"></rect><rect shape-rendering="optimizeSpeed" fill="#000" x="10" y="86.66666666666667"  width="7.069696969696969" height="7.069696969696969"></rect><rect shape-rendering="optimizeSpeed" fill="#000" x="16.96969696969697" y="86.66666666666667"  width="7.069696969696969" height="7.069696969696969"></rect><rect shape-rendering="optimizeSpeed" fill="#000" x="23.939393939393938" y="86.66666666666667"  width="7.069696969696969" height="7.069696969696969"></rect><rect shape-rendering="optimizeSpeed" fill="#000" x="30.90909090909091" y="86.66666666666667"  width="7.069696969696969" height="7.069696969696969"></rect><rect shape-rendering="optimizeSpeed" fill="#000" x="44.84848484848485" y="86.66666666666667"  width="7.069696969696969" height="7.069696969696969"></rect><rect shape-rendering="optimizeSpeed" fill="#000" x="79.6969696969697" y="86.66666666666667"  width="7.069696969696969" height="7.069696969696969"></rect><rect shape-rendering="optimizeSpeed" fill="#000" x="86.66666666666667" y="86.66666666666667"  width="7.069696969696969" height="7.069696969696969"></rect><rect shape-rendering="optimizeSpeed" fill="#000" x="93.63636363636364" y="86.66666666666667"  width="7.069696969696969" height="7.069696969696969"></rect><rect shape-rendering="optimizeSpeed" fill="#000" x="121.51515151515152" y="86.66666666666667"  width="7.069696969696969" height="7.069696969696969"></rect><rect shape-rendering="optimizeSpeed" fill="#000" x="135.45454545454544" y="86.66666666666667"  width="7.069696969696969" height="7.069696969696969"></rect><rect shape-rendering="optimizeSpeed" fill="#000" x="142.42424242424244" y="86.66666666666667"  width="7.069696969696969" height="7.069696969696969"></rect><rect shape-rendering="optimizeSpeed" fill="#000" x="149.3939393939394" y="86.66666666666667"  width="7.069696969696969" height="7.069696969696969"></rect><rect shape-rendering="optimizeSpeed" fill="#000" x="170.3030303030303" y="86.66666666666667"  width="7.069696969696969" height="7.069696969696969"></rect><rect shape-rendering="optimizeSpeed" fill="#000" x="177.27272727272728" y="86.66666666666667"  width="7.069696969696969" height="7.069696969696969"></rect><rect shape-rendering="optimizeSpeed" fill="#000" x="184.24242424242425" y="86.66666666666667"  width="7.069696969696969" height="7.069696969696969"></rect><rect shape-rendering="optimizeSpeed" fill="#000" x="212.12121212121212" y="86.66666666666667"  width="7.069696969696969" height="7.069696969696969"></rect><rect shape-rendering="optimizeSpeed" fill="#000" x="226.06060606060606" y="86.66666666666667"  width="7.069696969696969" height="7.069696969696969"></rect><rect shape-rendering="optimizeSpeed" fill="#000" x="233.03030303030303" y="86.66666666666667"  width="7.069696969696969" height="7.069696969696969"></rect><rect shape-rendering="optimizeSpeed" fill="#000" x="10" y="93.63636363636364"  width="7.069696969696969" height="7.069696969696969"></rect><rect shape-rendering="optimizeSpeed" fill="#000" x="44.84848484848485" y="93.63636363636364"  width="7.069696969696969" height="7.069696969696969"></rect><rect shape-rendering="optimizeSpeed" fill="#000" x="51.81818181818182" y="93.63636363636364"  width="7.069696969696969" height="7.069696969696969"></rect><rect shape-rendering="optimizeSpeed" fill="#000" x="58.78787878787879" y="93.63636363636364"  width="7.069696969696969" height="7.069696969696969"></rect><rect shape-rendering="optimizeSpeed" fill="#000" x="72.72727272727272" y="93.63636363636364"  width="7.069696969696969" height="7.069696969696969"></rect><rect shape-rendering="optimizeSpeed" fill="#000" x="79.6969696969697" y="93.63636363636364"  width="7.069696969696969" height="7.069696969696969"></rect><rect shape-rendering="optimizeSpeed" fill="#000" x="121.51515151515152" y="93.63636363636364"  width="7.069696969696969" height="7.069696969696969"></rect><rect shape-rendering="optimizeSpeed" fill="#000" x="149.3939393939394" y="93.63636363636364"  width="7.069696969696969" height="7.069696969696969"></rect><rect shape-rendering="optimizeSpeed" fill="#000" x="177.27272727272728" y="93.63636363636364"  width="7.069696969696969" height="7.069696969696969"></rect><rect shape-rendering="optimizeSpeed" fill="#000" x="191.21212121212122" y="93.63636363636364"  width="7.069696969696969" height="7.069696969696969"></rect><rect shape-rendering="optimizeSpeed" fill="#000" x="198.1818181818182" y="93.63636363636364"  width="7.069696969696969" height="7.069696969696969"></rect><rect shape-rendering="optimizeSpeed" fill="#000" x="212.12121212121212" y="93.63636363636364"  width="7.069696969696969" height="7.069696969696969"></rect><rect shape-rendering="optimizeSpeed" fill="#000" x="226.06060606060606" y="93.63636363636364"  width="7.069696969696969" height="7.069696969696969"></rect><rect shape-rendering="optimizeSpeed" fill="#000" x="233.03030303030303" y="93.63636363636364"  width="7.069696969696969" height="7.069696969696969"></rect><rect shape-rendering="optimizeSpeed" fill="#000" x="23.939393939393938" y="100.60606060606061"  width="7.069696969696969" height="7.069696969696969"></rect><rect shape-rendering="optimizeSpeed" fill="#000" x="79.6969696969697" y="100.60606060606061"  width="7.069696969696969" height="7.069696969696969"></rect><rect shape-rendering="optimizeSpeed" fill="#000" x="100.60606060606061" y="100.60606060606061"  width="7.069696969696969" height="7.069696969696969"></rect><rect shape-rendering="optimizeSpeed" fill="#000" x="114.54545454545455" y="100.60606060606061"  width="7.069696969696969" height="7.069696969696969"></rect><rect shape-rendering="optimizeSpeed" fill="#000" x="128.4848484848485" y="100.60606060606061"  width="7.069696969696969" height="7.069696969696969"></rect><rect shape-rendering="optimizeSpeed" fill="#000" x="142.42424242424244" y="100.60606060606061"  width="7.069696969696969" height="7.069696969696969"></rect><rect shape-rendering="optimizeSpeed" fill="#000" x="149.3939393939394" y="100.60606060606061"  width="7.069696969696969" height="7.069696969696969"></rect><rect shape-rendering="optimizeSpeed" fill="#000" x="163.33333333333334" y="100.60606060606061"  width="7.069696969696969" height="7.069696969696969"></rect><rect shape-rendering="optimizeSpeed" fill="#000" x="170.3030303030303" y="100.60606060606061"  width="7.069696969696969" height="7.069696969696969"></rect><rect shape-rendering="optimizeSpeed" fill="#000" x="177.27272727272728" y="100.60606060606061"  width="7.069696969696969" height="7.069696969696969"></rect><rect shape-rendering="optimizeSpeed" fill="#000" x="191.21212121212122" y="100.60606060606061"  width="7.069696969696969" height="7.069696969696969"></rect><rect shape-rendering="optimizeSpeed" fill="#000" x="198.1818181818182" y="100.60606060606061"  width="7.069696969696969" height="7.069696969696969"></rect><rect shape-rendering="optimizeSpeed" fill="#000" x="212.12121212121212" y="100.60606060606061"  width="7.069696969696969" height="7.069696969696969"></rect><rect shape-rendering="optimizeSpeed" fill="#000" x="219.0909090909091" y="100.60606060606061"  width="7.069696969696969" height="7.069696969696969"></rect><rect shape-rendering="optimizeSpeed" fill="#000" x="233.03030303030303" y="100.60606060606061"  width="7.069696969696969" height="7.069696969696969"></rect><rect shape-rendering="optimizeSpeed" fill="#000" x="10" y="107.57575757575758"  width="7.069696969696969" height="7.069696969696969"></rect><rect shape-rendering="optimizeSpeed" fill="#000" x="30.90909090909091" y="107.57575757575758"  width="7.069696969696969" height="7.069696969696969"></rect><rect shape-rendering="optimizeSpeed" fill="#000" x="37.878787878787875" y="107.57575757575758"  width="7.069696969696969" height="7.069696969696969"></rect><rect shape-rendering="optimizeSpeed" fill="#000" x="44.84848484848485" y="107.57575757575758"  width="7.069696969696969" height="7.069696969696969"></rect><rect shape-rendering="optimizeSpeed" fill="#000" x="51.81818181818182" y="107.57575757575758"  width="7.069696969696969" height="7.069696969696969"></rect><rect shape-rendering="optimizeSpeed" fill="#000" x="65.75757575757575" y="107.57575757575758"  width="7.069696969696969" height="7.069696969696969"></rect><rect shape-rendering="optimizeSpeed" fill="#000" x="86.66666666666667" y="107.57575757575758"  width="7.069696969696969" height="7.069696969696969"></rect><rect shape-rendering="optimizeSpeed" fill="#000" x="100.60606060606061" y="107.57575757575758"  width="7.069696969696969" height="7.069696969696969"></rect><rect shape-rendering="optimizeSpeed" fill="#000" x="107.57575757575758" y="107.57575757575758"  width="7.069696969696969" height="7.069696969696969"></rect><rect shape-rendering="optimizeSpeed" fill="#000" x="114.54545454545455" y="107.57575757575758"  width="7.069696969696969" height="7.069696969696969"></rect><rect shape-rendering="optimizeSpeed" fill="#000" x="142.42424242424244" y="107.57575757575758"  width="7.069696969696969" height="7.069696969696969"></rect><rect shape-rendering="optimizeSpeed" fill="#000" x="156.36363636363637" y="107.57575757575758"  width="7.069696969696969" height="7.069696969696969"></rect><rect shape-rendering="optimizeSpeed" fill="#000" x="170.3030303030303" y="107.57575757575758"  width="7.069696969696969" height="7.069696969696969"></rect><rect shape-rendering="optimizeSpeed" fill="#000" x="198.1818181818182" y="107.57575757575758"  width="7.069696969696969" height="7.069696969696969"></rect><rect shape-rendering="optimizeSpeed" fill="#000" x="219.0909090909091" y="107.57575757575758"  width="7.069696969696969" height="7.069696969696969"></rect><rect shape-rendering="optimizeSpeed" fill="#000" x="233.03030303030303" y="107.57575757575758"  width="7.069696969696969" height="7.069696969696969"></rect><rect shape-rendering="optimizeSpeed" fill="#000" x="16.96969696969697" y="114.54545454545455"  width="7.069696969696969" height="7.069696969696969"></rect><rect shape-rendering="optimizeSpeed" fill="#000" x="23.939393939393938" y="114.54545454545455"  width="7.069696969696969" height="7.069696969696969"></rect><rect shape-rendering="optimizeSpeed" fill="#000" x="44.84848484848485" y="114.54545454545455"  width="7.069696969696969" height="7.069696969696969"></rect><rect shape-rendering="optimizeSpeed" fill="#000" x="58.78787878787879" y="114.54545454545455"  width="7.069696969696969" height="7.069696969696969"></rect><rect shape-rendering="optimizeSpeed" fill="#000" x="72.72727272727272" y="114.54545454545455"  width="7.069696969696969" height="7.069696969696969"></rect><rect shape-rendering="optimizeSpeed" fill="#000" x="79.6969696969697" y="114.54545454545455"  width="7.069696969696969" height="7.069696969696969"></rect><rect shape-rendering="optimizeSpeed" fill="#000" x="107.57575757575758" y="114.54545454545455"  width="7.069696969696969" height="7.069696969696969"></rect><rect shape-rendering="optimizeSpeed" fill="#000" x="114.54545454545455" y="114.54545454545455"  width="7.069696969696969" height="7.069696969696969"></rect><rect shape-rendering="optimizeSpeed" fill="#000" x="135.45454545454544" y="114.54545454545455"  width="7.069696969696969" height="7.069696969696969"></rect><rect shape-rendering="optimizeSpeed" fill="#000" x="149.3939393939394" y="114.54545454545455"  width="7.069696969696969" height="7.069696969696969"></rect><rect shape-rendering="optimizeSpeed" fill="#000" x="163.33333333333334" y="114.54545454545455"  width="7.069696969696969" height="7.069696969696969"></rect><rect shape-rendering="optimizeSpeed" fill="#000" x="170.3030303030303" y="114.54545454545455"  width="7.069696969696969" height="7.069696969696969"></rect><rect shape-rendering="optimizeSpeed" fill="#000" x="191.21212121212122" y="114.54545454545455"  width="7.069696969696969" height="7.069696969696969"></rect><rect shape-rendering="optimizeSpeed" fill="#000" x="198.1818181818182" y="114.54545454545455"  width="7.069696969696969" height="7.069696969696969"></rect><rect shape-rendering="optimizeSpeed" fill="#000" x="205.15151515151516" y="114.54545454545455"  width="7.069696969696969" height="7.069696969696969"></rect><rect shape-rendering="optimizeSpeed" fill="#000" x="212.12121212121212" y="114.54545454545455"  width="7.069696969696969" height="7.069696969696969"></rect><rect shape-rendering="optimizeSpeed" fill="#000" x="226.06060606060606" y="114.54545454545455"  width="7.069696969696969" height="7.069696969696969"></rect><rect shape-rendering="optimizeSpeed" fill="#000" x="10" y="121.51515151515152"  width="7.069696969696969" height="7.069696969696969"></rect><rect shape-rendering="optimizeSpeed" fill="#000" x="30.90909090909091" y="121.51515151515152"  width="7.069696969696969" height="7.069696969696969"></rect><rect shape-rendering="optimizeSpeed" fill="#000" x="44.84848484848485" y="121.51515151515152"  width="7.069696969696969" height="7.069696969696969"></rect><rect shape-rendering="optimizeSpeed" fill="#000" x="51.81818181818182" y="121.51515151515152"  width="7.069696969696969" height="7.069696969696969"></rect><rect shape-rendering="optimizeSpeed" fill="#000" x="72.72727272727272" y="121.51515151515152"  width="7.069696969696969" height="7.069696969696969"></rect><rect shape-rendering="optimizeSpeed" fill="#000" x="86.66666666666667" y="121.51515151515152"  width="7.069696969696969" height="7.069696969696969"></rect><rect shape-rendering="optimizeSpeed" fill="#000" x="93.63636363636364" y="121.51515151515152"  width="7.069696969696969" height="7.069696969696969"></rect><rect shape-rendering="optimizeSpeed" fill="#000" x="114.54545454545455" y="121.51515151515152"  width="7.069696969696969" height="7.069696969696969"></rect><rect shape-rendering="optimizeSpeed" fill="#000" x="121.51515151515152" y="121.51515151515152"  width="7.069696969696969" height="7.069696969696969"></rect><rect shape-rendering="optimizeSpeed" fill="#000" x="142.42424242424244" y="121.51515151515152"  width="7.069696969696969" height="7.069696969696969"></rect><rect shape-rendering="optimizeSpeed" fill="#000" x="170.3030303030303" y="121.51515151515152"  width="7.069696969696969" height="7.069696969696969"></rect><rect shape-rendering="optimizeSpeed" fill="#000" x="177.27272727272728" y="121.51515151515152"  width="7.069696969696969" height="7.069696969696969"></rect><rect shape-rendering="optimizeSpeed" fill="#000" x="191.21212121212122" y="121.51515151515152"  width="7.069696969696969" height="7.069696969696969"></rect><rect shape-rendering="optimizeSpeed" fill="#000" x="198.1818181818182" y="121.51515151515152"  width="7.069696969696969" height="7.069696969696969"></rect><rect shape-rendering="optimizeSpeed" fill="#000" x="212.12121212121212" y="121.51515151515152"  width="7.069696969696969" height="7.069696969696969"></rect><rect shape-rendering="optimizeSpeed" fill="#000" x="226.06060606060606" y="121.51515151515152"  width="7.069696969696969" height="7.069696969696969"></rect><rect shape-rendering="optimizeSpeed" fill="#000" x="233.03030303030303" y="121.51515151515152"  width="7.069696969696969" height="7.069696969696969"></rect><rect shape-rendering="optimizeSpeed" fill="#000" x="10" y="128.4848484848485"  width="7.069696969696969" height="7.069696969696969"></rect><rect shape-rendering="optimizeSpeed" fill="#000" x="23.939393939393938" y="128.4848484848485"  width="7.069696969696969" height="7.069696969696969"></rect><rect shape-rendering="optimizeSpeed" fill="#000" x="65.75757575757575" y="128.4848484848485"  width="7.069696969696969" height="7.069696969696969"></rect><rect shape-rendering="optimizeSpeed" fill="#000" x="79.6969696969697" y="128.4848484848485"  width="7.069696969696969" height="7.069696969696969"></rect><rect shape-rendering="optimizeSpeed" fill="#000" x="93.63636363636364" y="128.4848484848485"  width="7.069696969696969" height="7.069696969696969"></rect><rect shape-rendering="optimizeSpeed" fill="#000" x="107.57575757575758" y="128.4848484848485"  width="7.069696969696969" height="7.069696969696969"></rect><rect shape-rendering="optimizeSpeed" fill="#000" x="114.54545454545455" y="128.4848484848485"  width="7.069696969696969" height="7.069696969696969"></rect><rect shape-rendering="optimizeSpeed" fill="#000" x="121.51515151515152" y="128.4848484848485"  width="7.069696969696969" height="7.069696969696969"></rect><rect shape-rendering="optimizeSpeed" fill="#000" x="142.42424242424244" y="128.4848484848485"  width="7.069696969696969" height="7.069696969696969"></rect><rect shape-rendering="optimizeSpeed" fill="#000" x="149.3939393939394" y="128.4848484848485"  width="7.069696969696969" height="7.069696969696969"></rect><rect shape-rendering="optimizeSpeed" fill="#000" x="156.36363636363637" y="128.4848484848485"  width="7.069696969696969" height="7.069696969696969"></rect><rect shape-rendering="optimizeSpeed" fill="#000" x="170.3030303030303" y="128.4848484848485"  width="7.069696969696969" height="7.069696969696969"></rect><rect shape-rendering="optimizeSpeed" fill="#000" x="177.27272727272728" y="128.4848484848485"  width="7.069696969696969" height="7.069696969696969"></rect><rect shape-rendering="optimizeSpeed" fill="#000" x="191.21212121212122" y="128.4848484848485"  width="7.069696969696969" height="7.069696969696969"></rect><rect shape-rendering="optimizeSpeed" fill="#000" x="212.12121212121212" y="128.4848484848485"  width="7.069696969696969" height="7.069696969696969"></rect><rect shape-rendering="optimizeSpeed" fill="#000" x="219.0909090909091" y="128.4848484848485"  width="7.069696969696969" height="7.069696969696969"></rect><rect shape-rendering="optimizeSpeed" fill="#000" x="233.03030303030303" y="128.4848484848485"  width="7.069696969696969" height="7.069696969696969"></rect><rect shape-rendering="optimizeSpeed" fill="#000" x="23.939393939393938" y="135.45454545454544"  width="7.069696969696969" height="7.069696969696969"></rect><rect shape-rendering="optimizeSpeed" fill="#000" x="30.90909090909091" y="135.45454545454544"  width="7.069696969696969" height="7.069696969696969"></rect><rect shape-rendering="optimizeSpeed" fill="#000" x="37.878787878787875" y="135.45454545454544"  width="7.069696969696969" height="7.069696969696969"></rect><rect shape-rendering="optimizeSpeed" fill="#000" x="51.81818181818182" y="135.45454545454544"  width="7.069696969696969" height="7.069696969696969"></rect><rect shape-rendering="optimizeSpeed" fill="#000" x="65.75757575757575" y="135.45454545454544"  width="7.069696969696969" height="7.069696969696969"></rect><rect shape-rendering="optimizeSpeed" fill="#000" x="93.63636363636364" y="135.45454545454544"  width="7.069696969696969" height="7.069696969696969"></rect><rect shape-rendering="optimizeSpeed" fill="#000" x="100.60606060606061" y="135.45454545454544"  width="7.069696969696969" height="7.069696969696969"></rect><rect shape-rendering="optimizeSpeed" fill="#000" x="107.57575757575758" y="135.45454545454544"  width="7.069696969696969" height="7.069696969696969"></rect><rect shape-rendering="optimizeSpeed" fill="#000" x="114.54545454545455" y="135.45454545454544"  width="7.069696969696969" height="7.069696969696969"></rect><rect shape-rendering="optimizeSpeed" fill="#000" x="142.42424242424244" y="135.45454545454544"  width="7.069696969696969" height="7.069696969696969"></rect><rect shape-rendering="optimizeSpeed" fill="#000" x="156.36363636363637" y="135.45454545454544"  width="7.069696969696969" height="7.069696969696969"></rect><rect shape-rendering="optimizeSpeed" fill="#000" x="170.3030303030303" y="135.45454545454544"  width="7.069696969696969" height="7.069696969696969"></rect><rect shape-rendering="optimizeSpeed" fill="#000" x="177.27272727272728" y="135.45454545454544"  width="7.069696969696969" height="7.069696969696969"></rect><rect shape-rendering="optimizeSpeed" fill="#000" x="191.21212121212122" y="135.45454545454544"  width="7.069696969696969" height="7.069696969696969"></rect><rect shape-rendering="optimizeSpeed" fill="#000" x="198.1818181818182" y="135.45454545454544"  width="7.069696969696969" height="7.069696969696969"></rect><rect shape-rendering="optimizeSpeed" fill="#000" x="205.15151515151516" y="135.45454545454544"  width="7.069696969696969" height="7.069696969696969"></rect><rect shape-rendering="optimizeSpeed" fill="#000" x="233.03030303030303" y="135.45454545454544"  width="7.069696969696969" height="7.069696969696969"></rect><rect shape-rendering="optimizeSpeed" fill="#000" x="10" y="142.42424242424244"  width="7.069696969696969" height="7.069696969696969"></rect><rect shape-rendering="optimizeSpeed" fill="#000" x="37.878787878787875" y="142.42424242424244"  width="7.069696969696969" height="7.069696969696969"></rect><rect shape-rendering="optimizeSpeed" fill="#000" x="44.84848484848485" y="142.42424242424244"  width="7.069696969696969" height="7.069696969696969"></rect><rect shape-rendering="optimizeSpeed" fill="#000" x="58.78787878787879" y="142.42424242424244"  width="7.069696969696969" height="7.069696969696969"></rect><rect shape-rendering="optimizeSpeed" fill="#000" x="65.75757575757575" y="142.42424242424244"  width="7.069696969696969" height="7.069696969696969"></rect><rect shape-rendering="optimizeSpeed" fill="#000" x="72.72727272727272" y="142.42424242424244"  width="7.069696969696969" height="7.069696969696969"></rect><rect shape-rendering="optimizeSpeed" fill="#000" x="86.66666666666667" y="142.42424242424244"  width="7.069696969696969" height="7.069696969696969"></rect><rect shape-rendering="optimizeSpeed" fill="#000" x="93.63636363636364" y="142.42424242424244"  width="7.069696969696969" height="7.069696969696969"></rect><rect shape-rendering="optimizeSpeed" fill="#000" x="142.42424242424244" y="142.42424242424244"  width="7.069696969696969" height="7.069696969696969"></rect><rect shape-rendering="optimizeSpeed" fill="#000" x="149.3939393939394" y="142.42424242424244"  width="7.069696969696969" height="7.069696969696969"></rect><rect shape-rendering="optimizeSpeed" fill="#000" x="163.33333333333334" y="142.42424242424244"  width="7.069696969696969" height="7.069696969696969"></rect><rect shape-rendering="optimizeSpeed" fill="#000" x="170.3030303030303" y="142.42424242424244"  width="7.069696969696969" height="7.069696969696969"></rect><rect shape-rendering="optimizeSpeed" fill="#000" x="177.27272727272728" y="142.42424242424244"  width="7.069696969696969" height="7.069696969696969"></rect><rect shape-rendering="optimizeSpeed" fill="#000" x="198.1818181818182" y="142.42424242424244"  width="7.069696969696969" height="7.069696969696969"></rect><rect shape-rendering="optimizeSpeed" fill="#000" x="212.12121212121212" y="142.42424242424244"  width="7.069696969696969" height="7.069696969696969"></rect><rect shape-rendering="optimizeSpeed" fill="#000" x="30.90909090909091" y="149.3939393939394"  width="7.069696969696969" height="7.069696969696969"></rect><rect shape-rendering="optimizeSpeed" fill="#000" x="44.84848484848485" y="149.3939393939394"  width="7.069696969696969" height="7.069696969696969"></rect><rect shape-rendering="optimizeSpeed" fill="#000" x="51.81818181818182" y="149.3939393939394"  width="7.069696969696969" height="7.069696969696969"></rect><rect shape-rendering="optimizeSpeed" fill="#000" x="100.60606060606061" y="149.3939393939394"  width="7.069696969696969" height="7.069696969696969"></rect><rect shape-rendering="optimizeSpeed" fill="#000" x="107.57575757575758" y="149.3939393939394"  width="7.069696969696969" height="7.069696969696969"></rect><rect shape-rendering="optimizeSpeed" fill="#000" x="121.51515151515152" y="149.3939393939394"  width="7.069696969696969" height="7.069696969696969"></rect><rect shape-rendering="optimizeSpeed" fill="#000" x="135.45454545454544" y="149.3939393939394"  width="7.069696969696969" height="7.069696969696969"></rect><rect shape-rendering="optimizeSpeed" fill="#000" x="149.3939393939394" y="149.3939393939394"  width="7.069696969696969" height="7.069696969696969"></rect><rect shape-rendering="optimizeSpeed" fill="#000" x="163.33333333333334" y="149.3939393939394"  width="7.069696969696969" height="7.069696969696969"></rect><rect shape-rendering="optimizeSpeed" fill="#000" x="177.27272727272728" y="149.3939393939394"  width="7.069696969696969" height="7.069696969696969"></rect><rect shape-rendering="optimizeSpeed" fill="#000" x="191.21212121212122" y="149.3939393939394"  width="7.069696969696969" height="7.069696969696969"></rect><rect shape-rendering="optimizeSpeed" fill="#000" x="23.939393939393938" y="156.36363636363637"  width="7.069696969696969" height="7.069696969696969"></rect><rect shape-rendering="optimizeSpeed" fill="#000" x="65.75757575757575" y="156.36363636363637"  width="7.069696969696969" height="7.069696969696969"></rect><rect shape-rendering="optimizeSpeed" fill="#000" x="79.6969696969697" y="156.36363636363637"  width="7.069696969696969" height="7.069696969696969"></rect><rect shape-rendering="optimizeSpeed" fill="#000" x="100.60606060606061" y="156.36363636363637"  width="7.069696969696969" height="7.069696969696969"></rect><rect shape-rendering="optimizeSpeed" fill="#000" x="114.54545454545455" y="156.36363636363637"  width="7.069696969696969" height="7.069696969696969"></rect><rect shape-rendering="optimizeSpeed" fill="#000" x="121.51515151515152" y="156.36363636363637"  width="7.069696969696969" height="7.069696969696969"></rect><rect shape-rendering="optimizeSpeed" fill="#000" x="128.4848484848485" y="156.36363636363637"  width="7.069696969696969" height="7.069696969696969"></rect><rect shape-rendering="optimizeSpeed" fill="#000" x="142.42424242424244" y="156.36363636363637"  width="7.069696969696969" height="7.069696969696969"></rect><rect shape-rendering="optimizeSpeed" fill="#000" x="149.3939393939394" y="156.36363636363637"  width="7.069696969696969" height="7.069696969696969"></rect><rect shape-rendering="optimizeSpeed" fill="#000" x="156.36363636363637" y="156.36363636363637"  width="7.069696969696969" height="7.069696969696969"></rect><rect shape-rendering="optimizeSpeed" fill="#000" x="170.3030303030303" y="156.36363636363637"  width="7.069696969696969" height="7.069696969696969"></rect><rect shape-rendering="optimizeSpeed" fill="#000" x="191.21212121212122" y="156.36363636363637"  width="7.069696969696969" height="7.069696969696969"></rect><rect shape-rendering="optimizeSpeed" fill="#000" x="198.1818181818182" y="156.36363636363637"  width="7.069696969696969" height="7.069696969696969"></rect><rect shape-rendering="optimizeSpeed" fill="#000" x="212.12121212121212" y="156.36363636363637"  width="7.069696969696969" height="7.069696969696969"></rect><rect shape-rendering="optimizeSpeed" fill="#000" x="233.03030303030303" y="156.36363636363637"  width="7.069696969696969" height="7.069696969696969"></rect><rect shape-rendering="optimizeSpeed" fill="#000" x="10" y="163.33333333333334"  width="7.069696969696969" height="7.069696969696969"></rect><rect shape-rendering="optimizeSpeed" fill="#000" x="16.96969696969697" y="163.33333333333334"  width="7.069696969696969" height="7.069696969696969"></rect><rect shape-rendering="optimizeSpeed" fill="#000" x="23.939393939393938" y="163.33333333333334"  width="7.069696969696969" height="7.069696969696969"></rect><rect shape-rendering="optimizeSpeed" fill="#000" x="37.878787878787875" y="163.33333333333334"  width="7.069696969696969" height="7.069696969696969"></rect><rect shape-rendering="optimizeSpeed" fill="#000" x="44.84848484848485" y="163.33333333333334"  width="7.069696969696969" height="7.069696969696969"></rect><rect shape-rendering="optimizeSpeed" fill="#000" x="51.81818181818182" y="163.33333333333334"  width="7.069696969696969" height="7.069696969696969"></rect><rect shape-rendering="optimizeSpeed" fill="#000" x="86.66666666666667" y="163.33333333333334"  width="7.069696969696969" height="7.069696969696969"></rect><rect shape-rendering="optimizeSpeed" fill="#000" x="114.54545454545455" y="163.33333333333334"  width="7.069696969696969" height="7.069696969696969"></rect><rect shape-rendering="optimizeSpeed" fill="#000" x="121.51515151515152" y="163.33333333333334"  width="7.069696969696969" height="7.069696969696969"></rect><rect shape-rendering="optimizeSpeed" fill="#000" x="128.4848484848485" y="163.33333333333334"  width="7.069696969696969" height="7.069696969696969"></rect><rect shape-rendering="optimizeSpeed" fill="#000" x="142.42424242424244" y="163.33333333333334"  width="7.069696969696969" height="7.069696969696969"></rect><rect shape-rendering="optimizeSpeed" fill="#000" x="149.3939393939394" y="163.33333333333334"  width="7.069696969696969" height="7.069696969696969"></rect><rect shape-rendering="optimizeSpeed" fill="#000" x="170.3030303030303" y="163.33333333333334"  width="7.069696969696969" height="7.069696969696969"></rect><rect shape-rendering="optimizeSpeed" fill="#000" x="177.27272727272728" y="163.33333333333334"  width="7.069696969696969" height="7.069696969696969"></rect><rect shape-rendering="optimizeSpeed" fill="#000" x="184.24242424242425" y="163.33333333333334"  width="7.069696969696969" height="7.069696969696969"></rect><rect shape-rendering="optimizeSpeed" fill="#000" x="191.21212121212122" y="163.33333333333334"  width="7.069696969696969" height="7.069696969696969"></rect><rect shape-rendering="optimizeSpeed" fill="#000" x="198.1818181818182" y="163.33333333333334"  width="7.069696969696969" height="7.069696969696969"></rect><rect shape-rendering="optimizeSpeed" fill="#000" x="205.15151515151516" y="163.33333333333334"  width="7.069696969696969" height="7.069696969696969"></rect><rect shape-rendering="optimizeSpeed" fill="#000" x="212.12121212121212" y="163.33333333333334"  width="7.069696969696969" height="7.069696969696969"></rect><rect shape-rendering="optimizeSpeed" fill="#000" x="219.0909090909091" y="163.33333333333334"  width="7.069696969696969" height="7.069696969696969"></rect><rect shape-rendering="optimizeSpeed" fill="#000" x="233.03030303030303" y="163.33333333333334"  width="7.069696969696969" height="7.069696969696969"></rect><rect shape-rendering="optimizeSpeed" fill="#000" x="23.939393939393938" y="170.3030303030303"  width="7.069696969696969" height="7.069696969696969"></rect><rect shape-rendering="optimizeSpeed" fill="#000" x="37.878787878787875" y="170.3030303030303"  width="7.069696969696969" height="7.069696969696969"></rect><rect shape-rendering="optimizeSpeed" fill="#000" x="65.75757575757575" y="170.3030303030303"  width="7.069696969696969" height="7.069696969696969"></rect><rect shape-rendering="optimizeSpeed" fill="#000" x="100.60606060606061" y="170.3030303030303"  width="7.069696969696969" height="7.069696969696969"></rect><rect shape-rendering="optimizeSpeed" fill="#000" x="114.54545454545455" y="170.3030303030303"  width="7.069696969696969" height="7.069696969696969"></rect><rect shape-rendering="optimizeSpeed" fill="#000" x="135.45454545454544" y="170.3030303030303"  width="7.069696969696969" height="7.069696969696969"></rect><rect shape-rendering="optimizeSpeed" fill="#000" x="142.42424242424244" y="170.3030303030303"  width="7.069696969696969" height="7.069696969696969"></rect><rect shape-rendering="optimizeSpeed" fill="#000" x="149.3939393939394" y="170.3030303030303"  width="7.069696969696969" height="7.069696969696969"></rect><rect shape-rendering="optimizeSpeed" fill="#000" x="163.33333333333334" y="170.3030303030303"  width="7.069696969696969" height="7.069696969696969"></rect><rect shape-rendering="optimizeSpeed" fill="#000" x="184.24242424242425" y="170.3030303030303"  width="7.069696969696969" height="7.069696969696969"></rect><rect shape-rendering="optimizeSpeed" fill="#000" x="191.21212121212122" y="170.3030303030303"  width="7.069696969696969" height="7.069696969696969"></rect><rect shape-rendering="optimizeSpeed" fill="#000" x="198.1818181818182" y="170.3030303030303"  width="7.069696969696969" height="7.069696969696969"></rect><rect shape-rendering="optimizeSpeed" fill="#000" x="205.15151515151516" y="170.3030303030303"  width="7.069696969696969" height="7.069696969696969"></rect><rect shape-rendering="optimizeSpeed" fill="#000" x="212.12121212121212" y="170.3030303030303"  width="7.069696969696969" height="7.069696969696969"></rect><rect shape-rendering="optimizeSpeed" fill="#000" x="233.03030303030303" y="170.3030303030303"  width="7.069696969696969" height="7.069696969696969"></rect><rect shape-rendering="optimizeSpeed" fill="#000" x="10" y="177.27272727272728"  width="7.069696969696969" height="7.069696969696969"></rect><rect shape-rendering="optimizeSpeed" fill="#000" x="16.96969696969697" y="177.27272727272728"  width="7.069696969696969" height="7.069696969696969"></rect><rect shape-rendering="optimizeSpeed" fill="#000" x="23.939393939393938" y="177.27272727272728"  width="7.069696969696969" height="7.069696969696969"></rect><rect shape-rendering="optimizeSpeed" fill="#000" x="30.90909090909091" y="177.27272727272728"  width="7.069696969696969" height="7.069696969696969"></rect><rect shape-rendering="optimizeSpeed" fill="#000" x="37.878787878787875" y="177.27272727272728"  width="7.069696969696969" height="7.069696969696969"></rect><rect shape-rendering="optimizeSpeed" fill="#000" x="51.81818181818182" y="177.27272727272728"  width="7.069696969696969" height="7.069696969696969"></rect><rect shape-rendering="optimizeSpeed" fill="#000" x="65.75757575757575" y="177.27272727272728"  width="7.069696969696969" height="7.069696969696969"></rect><rect shape-rendering="optimizeSpeed" fill="#000" x="79.6969696969697" y="177.27272727272728"  width="7.069696969696969" height="7.069696969696969"></rect><rect shape-rendering="optimizeSpeed" fill="#000" x="86.66666666666667" y="177.27272727272728"  width="7.069696969696969" height="7.069696969696969"></rect><rect shape-rendering="optimizeSpeed" fill="#000" x="93.63636363636364" y="177.27272727272728"  width="7.069696969696969" height="7.069696969696969"></rect><rect shape-rendering="optimizeSpeed" fill="#000" x="100.60606060606061" y="177.27272727272728"  width="7.069696969696969" height="7.069696969696969"></rect><rect shape-rendering="optimizeSpeed" fill="#000" x="114.54545454545455" y="177.27272727272728"  width="7.069696969696969" height="7.069696969696969"></rect><rect shape-rendering="optimizeSpeed" fill="#000" x="142.42424242424244" y="177.27272727272728"  width="7.069696969696969" height="7.069696969696969"></rect><rect shape-rendering="optimizeSpeed" fill="#000" x="149.3939393939394" y="177.27272727272728"  width="7.069696969696969" height="7.069696969696969"></rect><rect shape-rendering="optimizeSpeed" fill="#000" x="170.3030303030303" y="177.27272727272728"  width="7.069696969696969" height="7.069696969696969"></rect><rect shape-rendering="optimizeSpeed" fill="#000" x="177.27272727272728" y="177.27272727272728"  width="7.069696969696969" height="7.069696969696969"></rect><rect shape-rendering="optimizeSpeed" fill="#000" x="184.24242424242425" y="177.27272727272728"  width="7.069696969696969" height="7.069696969696969"></rect><rect shape-rendering="optimizeSpeed" fill="#000" x="191.21212121212122" y="177.27272727272728"  width="7.069696969696969" height="7.069696969696969"></rect><rect shape-rendering="optimizeSpeed" fill="#000" x="198.1818181818182" y="177.27272727272728"  width="7.069696969696969" height="7.069696969696969"></rect><rect shape-rendering="optimizeSpeed" fill="#000" x="205.15151515151516" y="177.27272727272728"  width="7.069696969696969" height="7.069696969696969"></rect><rect shape-rendering="optimizeSpeed" fill="#000" x="212.12121212121212" y="177.27272727272728"  width="7.069696969696969" height="7.069696969696969"></rect><rect shape-rendering="optimizeSpeed" fill="#000" x="226.06060606060606" y="177.27272727272728"  width="7.069696969696969" height="7.069696969696969"></rect><rect shape-rendering="optimizeSpeed" fill="#000" x="233.03030303030303" y="177.27272727272728"  width="7.069696969696969" height="7.069696969696969"></rect><rect shape-rendering="optimizeSpeed" fill="#000" x="65.75757575757575" y="184.24242424242425"  width="7.069696969696969" height="7.069696969696969"></rect><rect shape-rendering="optimizeSpeed" fill="#000" x="72.72727272727272" y="184.24242424242425"  width="7.069696969696969" height="7.069696969696969"></rect><rect shape-rendering="optimizeSpeed" fill="#000" x="79.6969696969697" y="184.24242424242425"  width="7.069696969696969" height="7.069696969696969"></rect><rect shape-rendering="optimizeSpeed" fill="#000" x="93.63636363636364" y="184.24242424242425"  width="7.069696969696969" height="7.069696969696969"></rect><rect shape-rendering="optimizeSpeed" fill="#000" x="114.54545454545455" y="184.24242424242425"  width="7.069696969696969" height="7.069696969696969"></rect><rect shape-rendering="optimizeSpeed" fill="#000" x="121.51515151515152" y="184.24242424242425"  width="7.069696969696969" height="7.069696969696969"></rect><rect shape-rendering="optimizeSpeed" fill="#000" x="135.45454545454544" y="184.24242424242425"  width="7.069696969696969" height="7.069696969696969"></rect><rect shape-rendering="optimizeSpeed" fill="#000" x="142.42424242424244" y="184.24242424242425"  width="7.069696969696969" height="7.069696969696969"></rect><rect shape-rendering="optimizeSpeed" fill="#000" x="149.3939393939394" y="184.24242424242425"  width="7.069696969696969" height="7.069696969696969"></rect><rect shape-rendering="optimizeSpeed" fill="#000" x="163.33333333333334" y="184.24242424242425"  width="7.069696969696969" height="7.069696969696969"></rect><rect shape-rendering="optimizeSpeed" fill="#000" x="170.3030303030303" y="184.24242424242425"  width="7.069696969696969" height="7.069696969696969"></rect><rect shape-rendering="optimizeSpeed" fill="#000" x="177.27272727272728" y="184.24242424242425"  width="7.069696969696969" height="7.069696969696969"></rect><rect shape-rendering="optimizeSpeed" fill="#000" x="205.15151515151516" y="184.24242424242425"  width="7.069696969696969" height="7.069696969696969"></rect><rect shape-rendering="optimizeSpeed" fill="#000" x="219.0909090909091" y="184.24242424242425"  width="7.069696969696969" height="7.069696969696969"></rect><rect shape-rendering="optimizeSpeed" fill="#000" x="233.03030303030303" y="184.24242424242425"  width="7.069696969696969" height="7.069696969696969"></rect><rect shape-rendering="optimizeSpeed" fill="#000" x="10" y="191.21212121212122"  width="7.069696969696969" height="7.069696969696969"></rect><rect shape-rendering="optimizeSpeed" fill="#000" x="16.96969696969697" y="191.21212121212122"  width="7.069696969696969" height="7.069696969696969"></rect><rect shape-rendering="optimizeSpeed" fill="#000" x="23.939393939393938" y="191.21212121212122"  width="7.069696969696969" height="7.069696969696969"></rect><rect shape-rendering="optimizeSpeed" fill="#000" x="30.90909090909091" y="191.21212121212122"  width="7.069696969696969" height="7.069696969696969"></rect><rect shape-rendering="optimizeSpeed" fill="#000" x="37.878787878787875" y="191.21212121212122"  width="7.069696969696969" height="7.069696969696969"></rect><rect shape-rendering="optimizeSpeed" fill="#000" x="44.84848484848485" y="191.21212121212122"  width="7.069696969696969" height="7.069696969696969"></rect><rect shape-rendering="optimizeSpeed" fill="#000" x="51.81818181818182" y="191.21212121212122"  width="7.069696969696969" height="7.069696969696969"></rect><rect shape-rendering="optimizeSpeed" fill="#000" x="72.72727272727272" y="191.21212121212122"  width="7.069696969696969" height="7.069696969696969"></rect><rect shape-rendering="optimizeSpeed" fill="#000" x="79.6969696969697" y="191.21212121212122"  width="7.069696969696969" height="7.069696969696969"></rect><rect shape-rendering="optimizeSpeed" fill="#000" x="93.63636363636364" y="191.21212121212122"  width="7.069696969696969" height="7.069696969696969"></rect><rect shape-rendering="optimizeSpeed" fill="#000" x="100.60606060606061" y="191.21212121212122"  width="7.069696969696969" height="7.069696969696969"></rect><rect shape-rendering="optimizeSpeed" fill="#000" x="107.57575757575758" y="191.21212121212122"  width="7.069696969696969" height="7.069696969696969"></rect><rect shape-rendering="optimizeSpeed" fill="#000" x="114.54545454545455" y="191.21212121212122"  width="7.069696969696969" height="7.069696969696969"></rect><rect shape-rendering="optimizeSpeed" fill="#000" x="121.51515151515152" y="191.21212121212122"  width="7.069696969696969" height="7.069696969696969"></rect><rect shape-rendering="optimizeSpeed" fill="#000" x="128.4848484848485" y="191.21212121212122"  width="7.069696969696969" height="7.069696969696969"></rect><rect shape-rendering="optimizeSpeed" fill="#000" x="142.42424242424244" y="191.21212121212122"  width="7.069696969696969" height="7.069696969696969"></rect><rect shape-rendering="optimizeSpeed" fill="#000" x="156.36363636363637" y="191.21212121212122"  width="7.069696969696969" height="7.069696969696969"></rect><rect shape-rendering="optimizeSpeed" fill="#000" x="177.27272727272728" y="191.21212121212122"  width="7.069696969696969" height="7.069696969696969"></rect><rect shape-rendering="optimizeSpeed" fill="#000" x="191.21212121212122" y="191.21212121212122"  width="7.069696969696969" height="7.069696969696969"></rect><rect shape-rendering="optimizeSpeed" fill="#000" x="205.15151515151516" y="191.21212121212122"  width="7.069696969696969" height="7.069696969696969"></rect><rect shape-rendering="optimizeSpeed" fill="#000" x="212.12121212121212" y="191.21212121212122"  width="7.069696969696969" height="7.069696969696969"></rect><rect shape-rendering="optimizeSpeed" fill="#000" x="219.0909090909091" y="191.21212121212122"  width="7.069696969696969" height="7.069696969696969"></rect><rect shape-rendering="optimizeSpeed" fill="#000" x="233.03030303030303" y="191.21212121212122"  width="7.069696969696969" height="7.069696969696969"></rect><rect shape-rendering="optimizeSpeed" fill="#000" x="10" y="198.1818181818182"  width="7.069696969696969" height="7.069696969696969"></rect><rect shape-rendering="optimizeSpeed" fill="#000" x="51.81818181818182" y="198.1818181818182"  width="7.069696969696969" height="7.069696969696969"></rect><rect shape-rendering="optimizeSpeed" fill="#000" x="65.75757575757575" y="198.1818181818182"  width="7.069696969696969" height="7.069696969696969"></rect><rect shape-rendering="optimizeSpeed" fill="#000" x="86.66666666666667" y="198.1818181818182"  width="7.069696969696969" height="7.069696969696969"></rect><rect shape-rendering="optimizeSpeed" fill="#000" x="93.63636363636364" y="198.1818181818182"  width="7.069696969696969" height="7.069696969696969"></rect><rect shape-rendering="optimizeSpeed" fill="#000" x="107.57575757575758" y="198.1818181818182"  width="7.069696969696969" height="7.069696969696969"></rect><rect shape-rendering="optimizeSpeed" fill="#000" x="121.51515151515152" y="198.1818181818182"  width="7.069696969696969" height="7.069696969696969"></rect><rect shape-rendering="optimizeSpeed" fill="#000" x="149.3939393939394" y="198.1818181818182"  width="7.069696969696969" height="7.069696969696969"></rect><rect shape-rendering="optimizeSpeed" fill="#000" x="170.3030303030303" y="198.1818181818182"  width="7.069696969696969" height="7.069696969696969"></rect><rect shape-rendering="optimizeSpeed" fill="#000" x="177.27272727272728" y="198.1818181818182"  width="7.069696969696969" height="7.069696969696969"></rect><rect shape-rendering="optimizeSpeed" fill="#000" x="205.15151515151516" y="198.1818181818182"  width="7.069696969696969" height="7.069696969696969"></rect><rect shape-rendering="optimizeSpeed" fill="#000" x="212.12121212121212" y="198.1818181818182"  width="7.069696969696969" height="7.069696969696969"></rect><rect shape-rendering="optimizeSpeed" fill="#000" x="10" y="205.15151515151516"  width="7.069696969696969" height="7.069696969696969"></rect><rect shape-rendering="optimizeSpeed" fill="#000" x="23.939393939393938" y="205.15151515151516"  width="7.069696969696969" height="7.069696969696969"></rect><rect shape-rendering="optimizeSpeed" fill="#000" x="30.90909090909091" y="205.15151515151516"  width="7.069696969696969" height="7.069696969696969"></rect><rect shape-rendering="optimizeSpeed" fill="#000" x="37.878787878787875" y="205.15151515151516"  width="7.069696969696969" height="7.069696969696969"></rect><rect shape-rendering="optimizeSpeed" fill="#000" x="51.81818181818182" y="205.15151515151516"  width="7.069696969696969" height="7.069696969696969"></rect><rect shape-rendering="optimizeSpeed" fill="#000" x="72.72727272727272" y="205.15151515151516"  width="7.069696969696969" height="7.069696969696969"></rect><rect shape-rendering="optimizeSpeed" fill="#000" x="79.6969696969697" y="205.15151515151516"  width="7.069696969696969" height="7.069696969696969"></rect><rect shape-rendering="optimizeSpeed" fill="#000" x="100.60606060606061" y="205.15151515151516"  width="7.069696969696969" height="7.069696969696969"></rect><rect shape-rendering="optimizeSpeed" fill="#000" x="107.57575757575758" y="205.15151515151516"  width="7.069696969696969" height="7.069696969696969"></rect><rect shape-rendering="optimizeSpeed" fill="#000" x="114.54545454545455" y="205.15151515151516"  width="7.069696969696969" height="7.069696969696969"></rect><rect shape-rendering="optimizeSpeed" fill="#000" x="149.3939393939394" y="205.15151515151516"  width="7.069696969696969" height="7.069696969696969"></rect><rect shape-rendering="optimizeSpeed" fill="#000" x="170.3030303030303" y="205.15151515151516"  width="7.069696969696969" height="7.069696969696969"></rect><rect shape-rendering="optimizeSpeed" fill="#000" x="177.27272727272728" y="205.15151515151516"  width="7.069696969696969" height="7.069696969696969"></rect><rect shape-rendering="optimizeSpeed" fill="#000" x="184.24242424242425" y="205.15151515151516"  width="7.069696969696969" height="7.069696969696969"></rect><rect shape-rendering="optimizeSpeed" fill="#000" x="191.21212121212122" y="205.15151515151516"  width="7.069696969696969" height="7.069696969696969"></rect><rect shape-rendering="optimizeSpeed" fill="#000" x="198.1818181818182" y="205.15151515151516"  width="7.069696969696969" height="7.069696969696969"></rect><rect shape-rendering="optimizeSpeed" fill="#000" x="205.15151515151516" y="205.15151515151516"  width="7.069696969696969" height="7.069696969696969"></rect><rect shape-rendering="optimizeSpeed" fill="#000" x="212.12121212121212" y="205.15151515151516"  width="7.069696969696969" height="7.069696969696969"></rect><rect shape-rendering="optimizeSpeed" fill="#000" x="226.06060606060606" y="205.15151515151516"  width="7.069696969696969" height="7.069696969696969"></rect><rect shape-rendering="optimizeSpeed" fill="#000" x="233.03030303030303" y="205.15151515151516"  width="7.069696969696969" height="7.069696969696969"></rect><rect shape-rendering="optimizeSpeed" fill="#000" x="10" y="212.12121212121212"  width="7.069696969696969" height="7.069696969696969"></rect><rect shape-rendering="optimizeSpeed" fill="#000" x="23.939393939393938" y="212.12121212121212"  width="7.069696969696969" height="7.069696969696969"></rect><rect shape-rendering="optimizeSpeed" fill="#000" x="30.90909090909091" y="212.12121212121212"  width="7.069696969696969" height="7.069696969696969"></rect><rect shape-rendering="optimizeSpeed" fill="#000" x="37.878787878787875" y="212.12121212121212"  width="7.069696969696969" height="7.069696969696969"></rect><rect shape-rendering="optimizeSpeed" fill="#000" x="51.81818181818182" y="212.12121212121212"  width="7.069696969696969" height="7.069696969696969"></rect><rect shape-rendering="optimizeSpeed" fill="#000" x="79.6969696969697" y="212.12121212121212"  width="7.069696969696969" height="7.069696969696969"></rect><rect shape-rendering="optimizeSpeed" fill="#000" x="100.60606060606061" y="212.12121212121212"  width="7.069696969696969" height="7.069696969696969"></rect><rect shape-rendering="optimizeSpeed" fill="#000" x="107.57575757575758" y="212.12121212121212"  width="7.069696969696969" height="7.069696969696969"></rect><rect shape-rendering="optimizeSpeed" fill="#000" x="114.54545454545455" y="212.12121212121212"  width="7.069696969696969" height="7.069696969696969"></rect><rect shape-rendering="optimizeSpeed" fill="#000" x="121.51515151515152" y="212.12121212121212"  width="7.069696969696969" height="7.069696969696969"></rect><rect shape-rendering="optimizeSpeed" fill="#000" x="142.42424242424244" y="212.12121212121212"  width="7.069696969696969" height="7.069696969696969"></rect><rect shape-rendering="optimizeSpeed" fill="#000" x="156.36363636363637" y="212.12121212121212"  width="7.069696969696969" height="7.069696969696969"></rect><rect shape-rendering="optimizeSpeed" fill="#000" x="170.3030303030303" y="212.12121212121212"  width="7.069696969696969" height="7.069696969696969"></rect><rect shape-rendering="optimizeSpeed" fill="#000" x="184.24242424242425" y="212.12121212121212"  width="7.069696969696969" height="7.069696969696969"></rect><rect shape-rendering="optimizeSpeed" fill="#000" x="205.15151515151516" y="212.12121212121212"  width="7.069696969696969" height="7.069696969696969"></rect><rect shape-rendering="optimizeSpeed" fill="#000" x="10" y="219.0909090909091"  width="7.069696969696969" height="7.069696969696969"></rect><rect shape-rendering="optimizeSpeed" fill="#000" x="23.939393939393938" y="219.0909090909091"  width="7.069696969696969" height="7.069696969696969"></rect><rect shape-rendering="optimizeSpeed" fill="#000" x="30.90909090909091" y="219.0909090909091"  width="7.069696969696969" height="7.069696969696969"></rect><rect shape-rendering="optimizeSpeed" fill="#000" x="37.878787878787875" y="219.0909090909091"  width="7.069696969696969" height="7.069696969696969"></rect><rect shape-rendering="optimizeSpeed" fill="#000" x="51.81818181818182" y="219.0909090909091"  width="7.069696969696969" height="7.069696969696969"></rect><rect shape-rendering="optimizeSpeed" fill="#000" x="65.75757575757575" y="219.0909090909091"  width="7.069696969696969" height="7.069696969696969"></rect><rect shape-rendering="optimizeSpeed" fill="#000" x="86.66666666666667" y="219.0909090909091"  width="7.069696969696969" height="7.069696969696969"></rect><rect shape-rendering="optimizeSpeed" fill="#000" x="114.54545454545455" y="219.0909090909091"  width="7.069696969696969" height="7.069696969696969"></rect><rect shape-rendering="optimizeSpeed" fill="#000" x="121.51515151515152" y="219.0909090909091"  width="7.069696969696969" height="7.069696969696969"></rect><rect shape-rendering="optimizeSpeed" fill="#000" x="128.4848484848485" y="219.0909090909091"  width="7.069696969696969" height="7.069696969696969"></rect><rect shape-rendering="optimizeSpeed" fill="#000" x="135.45454545454544" y="219.0909090909091"  width="7.069696969696969" height="7.069696969696969"></rect><rect shape-rendering="optimizeSpeed" fill="#000" x="142.42424242424244" y="219.0909090909091"  width="7.069696969696969" height="7.069696969696969"></rect><rect shape-rendering="optimizeSpeed" fill="#000" x="156.36363636363637" y="219.0909090909091"  width="7.069696969696969" height="7.069696969696969"></rect><rect shape-rendering="optimizeSpeed" fill="#000" x="163.33333333333334" y="219.0909090909091"  width="7.069696969696969" height="7.069696969696969"></rect><rect shape-rendering="optimizeSpeed" fill="#000" x="184.24242424242425" y="219.0909090909091"  width="7.069696969696969" height="7.069696969696969"></rect><rect shape-rendering="optimizeSpeed" fill="#000" x="205.15151515151516" y="219.0909090909091"  width="7.069696969696969" height="7.069696969696969"></rect><rect shape-rendering="optimizeSpeed" fill="#000" x="233.03030303030303" y="219.0909090909091"  width="7.069696969696969" height="7.069696969696969"></rect><rect shape-rendering="optimizeSpeed" fill="#000" x="10" y="226.06060606060606"  width="7.069696969696969" height="7.069696969696969"></rect><rect shape-rendering="optimizeSpeed" fill="#000" x="51.81818181818182" y="226.06060606060606"  width="7.069696969696969" height="7.069696969696969"></rect><rect shape-rendering="optimizeSpeed" fill="#000" x="65.75757575757575" y="226.06060606060606"  width="7.069696969696969" height="7.069696969696969"></rect><rect shape-rendering="optimizeSpeed" fill="#000" x="72.72727272727272" y="226.06060606060606"  width="7.069696969696969" height="7.069696969696969"></rect><rect shape-rendering="optimizeSpeed" fill="#000" x="100.60606060606061" y="226.06060606060606"  width="7.069696969696969" height="7.069696969696969"></rect><rect shape-rendering="optimizeSpeed" fill="#000" x="114.54545454545455" y="226.06060606060606"  width="7.069696969696969" height="7.069696969696969"></rect><rect shape-rendering="optimizeSpeed" fill="#000" x="121.51515151515152" y="226.06060606060606"  width="7.069696969696969" height="7.069696969696969"></rect><rect shape-rendering="optimizeSpeed" fill="#000" x="135.45454545454544" y="226.06060606060606"  width="7.069696969696969" height="7.069696969696969"></rect><rect shape-rendering="optimizeSpeed" fill="#000" x="149.3939393939394" y="226.06060606060606"  width="7.069696969696969" height="7.069696969696969"></rect><rect shape-rendering="optimizeSpeed" fill="#000" x="177.27272727272728" y="226.06060606060606"  width="7.069696969696969" height="7.069696969696969"></rect><rect shape-rendering="optimizeSpeed" fill="#000" x="198.1818181818182" y="226.06060606060606"  width="7.069696969696969" height="7.069696969696969"></rect><rect shape-rendering="optimizeSpeed" fill="#000" x="212.12121212121212" y="226.06060606060606"  width="7.069696969696969" height="7.069696969696969"></rect><rect shape-rendering="optimizeSpeed" fill="#000" x="10" y="233.03030303030303"  width="7.069696969696969" height="7.069696969696969"></rect><rect shape-rendering="optimizeSpeed" fill="#000" x="16.96969696969697" y="233.03030303030303"  width="7.069696969696969" height="7.069696969696969"></rect><rect shape-rendering="optimizeSpeed" fill="#000" x="23.939393939393938" y="233.03030303030303"  width="7.069696969696969" height="7.069696969696969"></rect><rect shape-rendering="optimizeSpeed" fill="#000" x="30.90909090909091" y="233.03030303030303"  width="7.069696969696969" height="7.069696969696969"></rect><rect shape-rendering="optimizeSpeed" fill="#000" x="37.878787878787875" y="233.03030303030303"  width="7.069696969696969" height="7.069696969696969"></rect><rect shape-rendering="optimizeSpeed" fill="#000" x="44.84848484848485" y="233.03030303030303"  width="7.069696969696969" height="7.069696969696969"></rect><rect shape-rendering="optimizeSpeed" fill="#000" x="51.81818181818182" y="233.03030303030303"  width="7.069696969696969" height="7.069696969696969"></rect><rect shape-rendering="optimizeSpeed" fill="#000" x="65.75757575757575" y="233.03030303030303"  width="7.069696969696969" height="7.069696969696969"></rect><rect shape-rendering="optimizeSpeed" fill="#000" x="72.72727272727272" y="233.03030303030303"  width="7.069696969696969" height="7.069696969696969"></rect><rect shape-rendering="optimizeSpeed" fill="#000" x="86.66666666666667" y="233.03030303030303"  width="7.069696969696969" height="7.069696969696969"></rect><rect shape-rendering="optimizeSpeed" fill="#000" x="93.63636363636364" y="233.03030303030303"  width="7.069696969696969" height="7.069696969696969"></rect><rect shape-rendering="optimizeSpeed" fill="#000" x="100.60606060606061" y="233.03030303030303"  width="7.069696969696969" height="7.069696969696969"></rect><rect shape-rendering="optimizeSpeed" fill="#000" x="121.51515151515152" y="233.03030303030303"  width="7.069696969696969" height="7.069696969696969"></rect><rect shape-rendering="optimizeSpeed" fill="#000" x="142.42424242424244" y="233.03030303030303"  width="7.069696969696969" height="7.069696969696969"></rect><rect shape-rendering="optimizeSpeed" fill="#000" x="149.3939393939394" y="233.03030303030303"  width="7.069696969696969" height="7.069696969696969"></rect><rect shape-rendering="optimizeSpeed" fill="#000" x="177.27272727272728" y="233.03030303030303"  width="7.069696969696969" height="7.069696969696969"></rect><rect shape-rendering="optimizeSpeed" fill="#000" x="191.21212121212122" y="233.03030303030303"  width="7.069696969696969" height="7.069696969696969"></rect><rect shape-rendering="optimizeSpeed" fill="#000" x="205.15151515151516" y="233.03030303030303"  width="7.069696969696969" height="7.069696969696969"></rect><rect shape-rendering="optimizeSpeed" fill="#000" x="233.03030303030303" y="233.03030303030303"  width="7.069696969696969" height="7.069696969696969"></rect></svg>