<?xml-stylesheet type="text/css" href="../main.css"?><!-- Generator: Gravit.io --><svg xmlns="http://www.w3.org/2000/svg" xmlns:xlink="http://www.w3.org/1999/xlink" style="isolation:isolate" viewBox="0 0 560 320" width="560" height="320" class="cover"><defs><clipPath id="_clipPath_hJNo4xJEh1kBFmtzIsicBZ5Qet5Ktezg"><rect width="560" height="320"/></clipPath></defs><g clip-path="url(#_clipPath_hJNo4xJEh1kBFmtzIsicBZ5Qet5Ktezg)"><path d=" M 0 10 L 320 10 L 280 40 L 560 40" fill="none" vector-effect="non-scaling-stroke" stroke-width="20" stroke="rgb(0,0,0)" stroke-linejoin="bevel" stroke-linecap="butt" stroke-miterlimit="3"/><path d=" M 0 90 L 340 90 L 300 120 L 560 120" fill="none" vector-effect="non-scaling-stroke" stroke-width="20" stroke="rgb(0,0,0)" stroke-linejoin="bevel" stroke-linecap="butt" stroke-miterlimit="3"/><path d=" M 0 170 L 360 170 L 320 200 L 560 200" fill="none" vector-effect="non-scaling-stroke" stroke-width="20" stroke="rgb(0,0,0)" stroke-linejoin="bevel" stroke-linecap="butt" stroke-miterlimit="3"/><path d=" M 0 250 L 380 250 L 340 280 L 560 280" fill="none" vector-effect="non-scaling-stroke" stroke-width="20" stroke="rgb(0,0,0)" stroke-linejoin="bevel" stroke-linecap="butt" stroke-miterlimit="3"/><path d=" M 68.576 144.624 L 51.824 144.624 L 51.824 103.392 L 60.08 103.392 L 60.08 137.616 L 68.576 137.616 L 68.576 144.624 L 68.576 144.624 Z  M 77.12 145.008 L 77.12 145.008 Q 73.04 145.008 71.528 142.296 L 71.528 142.296 L 71.528 142.296 Q 70.016 139.584 70.016 134.544 L 70.016 134.544 L 70.016 134.544 Q 70.016 130.416 71.096 128.208 L 71.096 128.208 L 71.096 128.208 Q 72.176 126 74.096 124.968 L 74.096 124.968 L 74.096 124.968 Q 76.016 123.936 79.952 122.688 L 79.952 122.688 L 82.256 121.92 L 82.256 121.824 L 82.256 118.32 L 82.256 118.32 Q 82.256 116.928 81.704 116.184 L 81.704 116.184 L 81.704 116.184 Q 81.152 115.44 80.384 115.44 L 80.384 115.44 L 80.384 115.44 Q 79.712 115.44 79.208 116.064 L 79.208 116.064 L 79.208 116.064 Q 78.704 116.688 78.704 117.744 L 78.704 117.744 L 78.704 119.856 L 70.544 119.856 L 70.544 118.704 L 70.544 118.704 Q 70.544 113.52 72.968 111.312 L 72.968 111.312 L 72.968 111.312 Q 75.392 109.104 80.864 109.104 L 80.864 109.104 L 80.864 109.104 Q 85.232 109.104 87.968 111.384 L 87.968 111.384 L 87.968 111.384 Q 90.704 113.664 90.704 117.84 L 90.704 117.84 L 90.704 144.624 L 82.352 144.624 L 82.352 140.448 L 82.352 140.448 Q 81.728 142.608 80.36 143.808 L 80.36 143.808 L 80.36 143.808 Q 78.992 145.008 77.12 145.008 L 77.12 145.008 L 77.12 145.008 Z  M 80.432 138.48 L 80.432 138.48 Q 81.392 138.48 81.8 137.688 L 81.8 137.688 L 81.8 137.688 Q 82.208 136.896 82.208 135.744 L 82.208 135.744 L 82.208 125.952 L 82.208 125.952 Q 80.336 126.672 79.448 127.776 L 79.448 127.776 L 79.448 127.776 Q 78.56 128.88 78.56 130.848 L 78.56 130.848 L 78.56 135.36 L 78.56 135.36 Q 78.56 138.48 80.432 138.48 L 80.432 138.48 L 80.432 138.48 Z  M 103.568 145.008 L 103.568 145.008 Q 93.152 145.008 93.152 134.448 L 93.152 134.448 L 93.2 131.664 L 101.6 131.664 L 101.648 135.792 L 101.648 135.792 Q 101.648 137.04 102.128 137.688 L 102.128 137.688 L 102.128 137.688 Q 102.608 138.336 103.712 138.336 L 103.712 138.336 L 103.712 138.336 Q 105.392 138.336 105.392 135.6 L 105.392 135.6 L 105.392 135.6 Q 105.392 133.584 104.6 132.432 L 104.6 132.432 L 104.6 132.432 Q 103.808 131.28 102.08 129.984 L 102.08 129.984 L 97.616 126.528 L 97.616 126.528 Q 95.312 124.752 94.304 122.856 L 94.304 122.856 L 94.304 122.856 Q 93.296 120.96 93.296 117.504 L 93.296 117.504 L 93.296 117.504 Q 93.296 114.816 94.712 112.92 L 94.712 112.92 L 94.712 112.92 Q 96.128 111.024 98.48 110.064 L 98.48 110.064 L 98.48 110.064 Q 100.832 109.104 103.712 109.104 L 103.712 109.104 L 103.712 109.104 Q 113.936 109.104 113.936 119.28 L 113.936 119.28 L 113.936 119.952 L 105.248 119.952 L 105.248 118.608 L 105.248 118.608 Q 105.248 117.36 104.84 116.472 L 104.84 116.472 L 104.84 116.472 Q 104.432 115.584 103.472 115.584 L 103.472 115.584 L 103.472 115.584 Q 102.608 115.584 102.152 116.088 L 102.152 116.088 L 102.152 116.088 Q 101.696 116.592 101.696 117.456 L 101.696 117.456 L 101.696 117.456 Q 101.696 119.376 103.184 120.432 L 103.184 120.432 L 108.368 124.224 L 108.368 124.224 Q 111.152 126.288 112.64 128.712 L 112.64 128.712 L 112.64 128.712 Q 114.128 131.136 114.128 134.832 L 114.128 134.832 L 114.128 134.832 Q 114.128 139.728 111.344 142.368 L 111.344 142.368 L 111.344 142.368 Q 108.56 145.008 103.568 145.008 L 103.568 145.008 L 103.568 145.008 Z  M 126.368 145.008 L 126.368 145.008 Q 115.952 145.008 115.952 134.448 L 115.952 134.448 L 116 131.664 L 124.4 131.664 L 124.448 135.792 L 124.448 135.792 Q 124.448 137.04 124.928 137.688 L 124.928 137.688 L 124.928 137.688 Q 125.408 138.336 126.512 138.336 L 126.512 138.336 L 126.512 138.336 Q 128.192 138.336 128.192 135.6 L 128.192 135.6 L 128.192 135.6 Q 128.192 133.584 127.4 132.432 L 127.4 132.432 L 127.4 132.432 Q 126.608 131.28 124.88 129.984 L 124.88 129.984 L 120.416 126.528 L 120.416 126.528 Q 118.112 124.752 117.104 122.856 L 117.104 122.856 L 117.104 122.856 Q 116.096 120.96 116.096 117.504 L 116.096 117.504 L 116.096 117.504 Q 116.096 114.816 117.512 112.92 L 117.512 112.92 L 117.512 112.92 Q 118.928 111.024 121.28 110.064 L 121.28 110.064 L 121.28 110.064 Q 123.632 109.104 126.512 109.104 L 126.512 109.104 L 126.512 109.104 Q 136.736 109.104 136.736 119.28 L 136.736 119.28 L 136.736 119.952 L 128.048 119.952 L 128.048 118.608 L 128.048 118.608 Q 128.048 117.36 127.64 116.472 L 127.64 116.472 L 127.64 116.472 Q 127.232 115.584 126.272 115.584 L 126.272 115.584 L 126.272 115.584 Q 125.408 115.584 124.952 116.088 L 124.952 116.088 L 124.952 116.088 Q 124.496 116.592 124.496 117.456 L 124.496 117.456 L 124.496 117.456 Q 124.496 119.376 125.984 120.432 L 125.984 120.432 L 131.168 124.224 L 131.168 124.224 Q 133.952 126.288 135.44 128.712 L 135.44 128.712 L 135.44 128.712 Q 136.928 131.136 136.928 134.832 L 136.928 134.832 L 136.928 134.832 Q 136.928 139.728 134.144 142.368 L 134.144 142.368 L 134.144 142.368 Q 131.36 145.008 126.368 145.008 L 126.368 145.008 L 126.368 145.008 Z " fill-rule="evenodd" fill="rgb(0,0,0)"/><path d=" M 71.824 224.624 L 71.824 183.392 L 84.496 183.392 L 84.496 183.392 Q 87.52 183.392 89.176 184.76 L 89.176 184.76 L 89.176 184.76 Q 90.832 186.128 91.408 188.6 L 91.408 188.6 L 91.408 188.6 Q 91.984 191.072 91.984 194.912 L 91.984 194.912 L 91.984 194.912 Q 91.984 198.416 91.072 200.384 L 91.072 200.384 L 91.072 200.384 Q 90.16 202.352 87.904 203.12 L 87.904 203.12 L 87.904 203.12 Q 89.776 203.504 90.616 204.992 L 90.616 204.992 L 90.616 204.992 Q 91.456 206.48 91.456 209.024 L 91.456 209.024 L 91.36 224.624 L 83.296 224.624 L 83.296 208.496 L 83.296 208.496 Q 83.296 206.768 82.624 206.288 L 82.624 206.288 L 82.624 206.288 Q 81.952 205.808 80.176 205.808 L 80.176 205.808 L 80.176 224.624 L 71.824 224.624 L 71.824 224.624 Z  M 80.224 198.656 L 82.192 198.656 L 82.192 198.656 Q 83.92 198.656 83.92 194.912 L 83.92 194.912 L 83.92 194.912 Q 83.92 193.28 83.776 192.464 L 83.776 192.464 L 83.776 192.464 Q 83.632 191.648 83.248 191.336 L 83.248 191.336 L 83.248 191.336 Q 82.864 191.024 82.144 191.024 L 82.144 191.024 L 80.224 191.024 L 80.224 198.656 L 80.224 198.656 Z  M 104.8 225.008 L 104.8 225.008 Q 94.288 225.008 94.288 214.112 L 94.288 214.112 L 94.288 200 L 94.288 200 Q 94.288 195.008 97.096 192.056 L 97.096 192.056 L 97.096 192.056 Q 99.904 189.104 104.8 189.104 L 104.8 189.104 L 104.8 189.104 Q 109.696 189.104 112.504 192.056 L 112.504 192.056 L 112.504 192.056 Q 115.312 195.008 115.312 200 L 115.312 200 L 115.312 214.112 L 115.312 214.112 Q 115.312 225.008 104.8 225.008 L 104.8 225.008 L 104.8 225.008 Z  M 104.8 218.528 L 104.8 218.528 Q 105.808 218.528 106.288 217.808 L 106.288 217.808 L 106.288 217.808 Q 106.768 217.088 106.768 215.84 L 106.768 215.84 L 106.768 198.656 L 106.768 198.656 Q 106.768 195.584 104.8 195.584 L 104.8 195.584 L 104.8 195.584 Q 102.832 195.584 102.832 198.656 L 102.832 198.656 L 102.832 215.84 L 102.832 215.84 Q 102.832 217.088 103.312 217.808 L 103.312 217.808 L 103.312 217.808 Q 103.792 218.528 104.8 218.528 L 104.8 218.528 L 104.8 218.528 Z  M 128.992 225.008 L 128.992 225.008 Q 123.232 225.008 120.688 222.08 L 120.688 222.08 L 120.688 222.08 Q 118.144 219.152 118.144 213.104 L 118.144 213.104 L 118.144 202.256 L 118.144 202.256 Q 118.144 197.696 119.128 194.84 L 119.128 194.84 L 119.128 194.84 Q 120.112 191.984 122.44 190.544 L 122.44 190.544 L 122.44 190.544 Q 124.768 189.104 128.896 189.104 L 128.896 189.104 L 128.896 189.104 Q 133.408 189.104 136.24 191.456 L 136.24 191.456 L 136.24 191.456 Q 139.072 193.808 139.072 198.032 L 139.072 198.032 L 139.072 203.408 L 130.528 203.408 L 130.528 198.464 L 130.528 198.464 Q 130.528 197.072 130.144 196.328 L 130.144 196.328 L 130.144 196.328 Q 129.76 195.584 128.656 195.584 L 128.656 195.584 L 128.656 195.584 Q 126.592 195.584 126.592 198.512 L 126.592 198.512 L 126.592 215.552 L 126.592 215.552 Q 126.592 216.752 127.096 217.592 L 127.096 217.592 L 127.096 217.592 Q 127.6 218.432 128.608 218.432 L 128.608 218.432 L 128.608 218.432 Q 129.616 218.432 130.12 217.616 L 130.12 217.616 L 130.12 217.616 Q 130.624 216.8 130.576 215.504 L 130.576 215.504 L 130.528 209.6 L 139.072 209.6 L 139.072 215.744 L 139.072 215.744 Q 139.072 220.064 136.264 222.536 L 136.264 222.536 L 136.264 222.536 Q 133.456 225.008 128.992 225.008 L 128.992 225.008 L 128.992 225.008 Z  M 150.304 224.624 L 142 224.624 L 142 183.152 L 150.304 183.152 L 150.304 201.584 L 154.336 189.488 L 163.024 189.488 L 157.744 204.752 L 164.464 224.624 L 155.536 224.624 L 150.304 208.064 L 150.304 224.624 L 150.304 224.624 Z  M 175.408 225.008 L 175.408 225.008 Q 169.984 225.008 167.632 222.032 L 167.632 222.032 L 167.632 222.032 Q 165.28 219.056 165.28 213.152 L 165.28 213.152 L 165.28 199.04 L 165.28 199.04 Q 165.28 194.192 168.064 191.648 L 168.064 191.648 L 168.064 191.648 Q 170.848 189.104 175.84 189.104 L 175.84 189.104 L 175.84 189.104 Q 185.968 189.104 185.968 199.04 L 185.968 199.04 L 185.968 201.584 L 185.968 201.584 Q 185.968 205.424 185.872 207.824 L 185.872 207.824 L 173.68 207.824 L 173.68 214.64 L 173.68 214.64 Q 173.68 216.464 174.064 217.496 L 174.064 217.496 L 174.064 217.496 Q 174.448 218.528 175.696 218.528 L 175.696 218.528 L 175.696 218.528 Q 176.656 218.528 177.064 217.952 L 177.064 217.952 L 177.064 217.952 Q 177.472 217.376 177.544 216.632 L 177.544 216.632 L 177.544 216.632 Q 177.616 215.888 177.616 214.448 L 177.616 214.448 L 177.616 211.04 L 185.968 211.04 L 185.968 213.056 L 185.968 213.056 Q 185.968 219.2 183.592 222.104 L 183.592 222.104 L 183.592 222.104 Q 181.216 225.008 175.408 225.008 L 175.408 225.008 L 175.408 225.008 Z  M 173.632 203.648 L 177.616 203.648 L 177.616 199.136 L 177.616 199.136 Q 177.616 195.344 175.744 195.344 L 175.744 195.344 L 175.744 195.344 Q 173.632 195.344 173.632 199.136 L 173.632 199.136 L 173.632 203.648 L 173.632 203.648 Z  M 188.992 224.624 L 188.992 189.488 L 197.392 189.488 L 197.392 193.952 L 197.392 193.952 Q 197.92 191.792 199.216 190.448 L 199.216 190.448 L 199.216 190.448 Q 200.512 189.104 202.672 189.104 L 202.672 189.104 L 202.672 189.104 Q 206.224 189.104 207.928 191.288 L 207.928 191.288 L 207.928 191.288 Q 209.632 193.472 209.632 197.504 L 209.632 197.504 L 209.632 224.624 L 201.376 224.624 L 201.376 198.368 L 201.376 198.368 Q 201.376 197.216 200.92 196.4 L 200.92 196.4 L 200.92 196.4 Q 200.464 195.584 199.504 195.584 L 199.504 195.584 L 199.504 195.584 Q 198.208 195.584 197.8 196.76 L 197.8 196.76 L 197.8 196.76 Q 197.392 197.936 197.392 199.904 L 197.392 199.904 L 197.392 224.624 L 188.992 224.624 L 188.992 224.624 Z " fill-rule="evenodd" fill="rgb(0,0,0)"/><path d=" M 92.824 304.624 L 92.824 263.392 L 104.008 263.392 L 104.008 263.392 Q 108.52 263.392 110.56 265.6 L 110.56 265.6 L 110.56 265.6 Q 112.6 267.808 112.6 272.8 L 112.6 272.8 L 112.6 274.624 L 112.6 274.624 Q 112.6 280.528 108.376 281.68 L 108.376 281.68 L 108.376 281.68 Q 110.968 282.352 112.024 284.8 L 112.024 284.8 L 112.024 284.8 Q 113.08 287.248 113.08 291.28 L 113.08 291.28 L 113.08 291.28 Q 113.08 297.856 111.112 301.24 L 111.112 301.24 L 111.112 301.24 Q 109.144 304.624 104.008 304.624 L 104.008 304.624 L 92.824 304.624 L 92.824 304.624 Z  M 100.888 278.896 L 102.568 278.896 L 102.568 278.896 Q 103.624 278.896 104.008 278.104 L 104.008 278.104 L 104.008 278.104 Q 104.392 277.312 104.392 275.872 L 104.392 275.872 L 104.392 271.744 L 104.392 271.744 Q 104.392 269.728 102.616 269.728 L 102.616 269.728 L 100.888 269.728 L 100.888 278.896 L 100.888 278.896 Z  M 101.704 297.376 L 101.704 297.376 Q 104.92 297.376 104.92 294.304 L 104.92 294.304 L 104.92 289.168 L 104.92 289.168 Q 104.92 287.296 104.368 286.336 L 104.368 286.336 L 104.368 286.336 Q 103.816 285.376 102.424 285.376 L 102.424 285.376 L 100.888 285.376 L 100.888 297.328 L 101.704 297.376 L 101.704 297.376 Z  M 124.024 267.136 L 115.624 267.136 L 115.624 261.28 L 124.024 261.28 L 124.024 267.136 L 124.024 267.136 Z  M 124.024 304.624 L 115.624 304.624 L 115.624 269.488 L 124.024 269.488 L 124.024 304.624 L 124.024 304.624 Z  M 127.336 304.624 L 127.336 269.488 L 135.736 269.488 L 135.736 273.376 L 135.736 273.376 Q 136.36 271.312 137.92 270.184 L 137.92 270.184 L 137.92 270.184 Q 139.48 269.056 141.784 269.056 L 141.784 269.056 L 141.784 276.064 L 141.784 276.064 Q 140.008 276.064 137.872 276.568 L 137.872 276.568 L 137.872 276.568 Q 135.736 277.072 135.736 277.744 L 135.736 277.744 L 135.736 304.624 L 127.336 304.624 L 127.336 304.624 Z  M 153.304 309.76 L 153.304 309.76 Q 149.56 309.76 147.424 309.16 L 147.424 309.16 L 147.424 309.16 Q 145.288 308.56 143.224 306.88 L 143.224 306.88 L 146.104 302.032 L 146.104 302.032 Q 149.176 303.856 152.2 303.856 L 152.2 303.856 L 152.2 303.856 Q 154.168 303.856 155.176 302.608 L 155.176 302.608 L 155.176 302.608 Q 156.184 301.36 156.184 299.2 L 156.184 299.2 L 156.184 297.28 L 156.184 297.28 Q 155.176 300.88 150.856 300.88 L 150.856 300.88 L 150.856 300.88 Q 147.256 300.88 145.552 298.432 L 145.552 298.432 L 145.552 298.432 Q 143.848 295.984 143.848 291.904 L 143.848 291.904 L 143.848 278.704 L 143.848 278.704 Q 143.848 274.048 145.408 271.576 L 145.408 271.576 L 145.408 271.576 Q 146.968 269.104 150.856 269.104 L 150.856 269.104 L 150.856 269.104 Q 153.112 269.104 154.432 270.232 L 154.432 270.232 L 154.432 270.232 Q 155.752 271.36 156.184 273.424 L 156.184 273.424 L 156.184 269.488 L 164.776 269.488 L 164.776 298.672 L 164.776 298.672 Q 164.776 304.576 162.04 307.168 L 162.04 307.168 L 162.04 307.168 Q 159.304 309.76 153.304 309.76 L 153.304 309.76 L 153.304 309.76 Z  M 154.216 294.544 L 154.216 294.544 Q 156.184 294.544 156.184 290.992 L 156.184 290.992 L 156.184 278.464 L 156.184 278.464 Q 156.184 277.408 155.608 276.448 L 155.608 276.448 L 155.608 276.448 Q 155.032 275.488 154.168 275.488 L 154.168 275.488 L 154.168 275.488 Q 153.064 275.488 152.68 276.28 L 152.68 276.28 L 152.68 276.28 Q 152.296 277.072 152.296 278.464 L 152.296 278.464 L 152.296 290.992 L 152.296 290.992 Q 152.296 292.576 152.68 293.56 L 152.68 293.56 L 152.68 293.56 Q 153.064 294.544 154.216 294.544 L 154.216 294.544 L 154.216 294.544 Z  M 176.392 267.136 L 167.992 267.136 L 167.992 261.28 L 176.392 261.28 L 176.392 267.136 L 176.392 267.136 Z  M 176.392 304.624 L 167.992 304.624 L 167.992 269.488 L 176.392 269.488 L 176.392 304.624 L 176.392 304.624 Z  M 186.952 305.008 L 186.952 305.008 Q 183.64 305.008 182.392 303.616 L 182.392 303.616 L 182.392 303.616 Q 181.144 302.224 181.144 299.152 L 181.144 299.152 L 181.144 277.216 L 178.792 277.216 L 178.792 270.832 L 181.144 270.832 L 181.144 263.392 L 189.304 263.392 L 189.304 270.832 L 191.704 270.832 L 191.704 277.216 L 189.304 277.216 L 189.304 296.944 L 189.304 296.944 Q 189.304 297.856 189.448 298.288 L 189.448 298.288 L 189.448 298.288 Q 189.592 298.72 190.216 298.72 L 190.216 298.72 L 190.216 298.72 Q 190.696 298.72 191.128 298.672 L 191.128 298.672 L 191.128 298.672 Q 191.56 298.624 191.704 298.624 L 191.704 298.624 L 191.704 304.384 L 191.704 304.384 Q 190.984 304.576 189.616 304.792 L 189.616 304.792 L 189.616 304.792 Q 188.248 305.008 186.952 305.008 L 186.952 305.008 L 186.952 305.008 Z " fill-rule="evenodd" fill="rgb(0,0,0)"/></g></svg>
